/* XPM */
static char *result[] = {
/* columns rows colors chars-per-pixel */
"32 32 162 2 ",
"   c black",
".  c #040402",
"X  c #060502",
"o  c #060607",
"O  c #0C0C0D",
"+  c #111111",
"@  c #131313",
"#  c #19191A",
"$  c #2E1E01",
"%  c #202021",
"&  c #272729",
"*  c #282829",
"=  c #313132",
"-  c #323234",
";  c #353536",
":  c #373739",
">  c #3E3E40",
",  c #404042",
"<  c #434345",
"1  c #464649",
"2  c #49494B",
"3  c #4A4A4C",
"4  c #4D4D4F",
"5  c #4E4E50",
"6  c #515153",
"7  c #525355",
"8  c #545557",
"9  c #57585B",
"0  c #58595B",
"q  c #5B5C5E",
"w  c #5D5E60",
"e  c #5E5F61",
"r  c #5F6062",
"t  c #616264",
"y  c #626264",
"u  c #626365",
"i  c #656668",
"p  c #686768",
"a  c #68696C",
"s  c #6A6B6D",
"d  c #6A6B6E",
"f  c #6B6C6F",
"g  c #6C6D71",
"h  c #6E6F72",
"j  c #6E6F73",
"k  c #717275",
"l  c #737476",
"z  c #737577",
"x  c #787675",
"c  c #757679",
"v  c #76777A",
"b  c #78797C",
"n  c #7A7B7D",
"m  c #7B7C7E",
"M  c #995133",
"N  c #9C5433",
"B  c #995536",
"V  c #9F5C36",
"C  c #A25A32",
"Z  c #A45C32",
"A  c #A65D32",
"S  c #A75F32",
"D  c #B0652F",
"F  c #B4692F",
"G  c #B66B2E",
"H  c #B96D2D",
"J  c #BB712E",
"K  c #BE732D",
"L  c #BA742F",
"P  c #BE7A2D",
"I  c #BC792E",
"U  c #BE782E",
"Y  c #AA6131",
"T  c #AB6131",
"R  c #AE6431",
"E  c #AE6E32",
"W  c #AF6E32",
"Q  c #AF6F32",
"!  c #AD6D37",
"~  c #A56A3D",
"^  c #B36930",
"/  c #B06A30",
"(  c #B26C31",
")  c #B06E31",
"_  c #AC743E",
"`  c #B27231",
"'  c #B37231",
"]  c #B67530",
"[  c #B77530",
"{  c #C1762C",
"}  c #C2762C",
"|  c #C67A2B",
" . c #C2792C",
".. c #C37B2C",
"X. c #C37C2C",
"o. c #C37D2C",
"O. c #C27D2D",
"+. c #C87C2B",
"@. c #CA7F2A",
"#. c #9F6F49",
"$. c #99704F",
"%. c #B49438",
"&. c #ED9E1B",
"*. c #EE9E1A",
"=. c #EF9E1B",
"-. c #E99B1D",
";. c #E89A1F",
":. c #EA9B1F",
">. c #F3A218",
",. c #F2A318",
"<. c #F3A318",
"1. c #F2A219",
"2. c #F2A319",
"3. c #F6A718",
"4. c #FAAC1B",
"5. c #C7812B",
"6. c #C8812B",
"7. c #CF8229",
"8. c #CB842A",
"9. c #CF8729",
"0. c #D48727",
"q. c #D58727",
"w. c #D58A27",
"e. c #DA8C24",
"r. c #D18428",
"t. c #D48A28",
"y. c #CA982A",
"u. c #DF9023",
"i. c #DE9123",
"p. c #DF9123",
"a. c #DB9025",
"s. c #E39421",
"d. c #E59620",
"f. c #E49621",
"g. c #FBB427",
"h. c #FCB529",
"j. c #FCBA30",
"k. c #FFBD31",
"l. c #FDC43D",
"z. c #AA904D",
"x. c #AC9D4D",
"c. c #BF914E",
"v. c #C89D54",
"b. c #D0A85B",
"n. c #DDBC65",
"m. c #FDC844",
"M. c #FECC4B",
"N. c #FFD14D",
"B. c #FED454",
"V. c #FFDA5E",
"C. c #E6C96C",
"Z. c #E6CA6C",
"A. c #FFDE62",
"S. c #EED673",
"D. c #FFE66A",
"F. c #FFE76E",
"G. c #F7E77A",
"H. c #FEED78",
"J. c #FEED7A",
"K. c #7D7E80",
"L. c #7F8083",
"P. c None",
/* pixels */
"P.P.P.P.P.P.P.P.P.P.P.P.P.P.P.P.P.P.P.P.P.P.P.P.P.P.P.P.P.P.P.P.",
"P.P.P.P.P.P.P.P.P.P.P.P.P.P.P.P.P.P.P.P.P.P.P.P.P.P.P.P.P.P.P.P.",
"P.P.P.P.P.P.P.P.P.P.P.P.u.>.2.P.P.P.M V P.P.P.P.P.P.P.P.P.P.P.P.",
"P.P.P.P.P.P.P.P.P.P.w.i.-.<.-.P.P.P.N ~ c.n.G.P.P.P.P.P.P.P.P.P.",
"P.P.P.P.P.P.P.P.+.@.t.p.*.<.d.P.P.P.B _ v.Z.J.A.M.P.P.P.P.P.P.P.",
"P.P.P.P.P.P.P.J | 7.e.a.=.P.P.P.P.P.P.P.b.S.J.V.l.g.P.P.P.P.P.P.",
"P.P.P.P.P.P.) K | r.P.P.P.P.P.P.P.P.P.P.P.P.F.B.l.4.,.P.P.P.P.P.",
"P.P.P.P.P.R H { X.P.P.P.P.P.P.P.P.P.P.P.P.P.P.P.j.4.*.d.P.P.P.P.",
"P.P.P.P.S D H } P.P.P.P.P.P.P.n n n P.P.P.P.P.P.P.2.*.f.a.P.P.P.",
"P.P.P.C T F L P.P.P.P.P.L.K.m P.P.n v l x P.P.P.P.P.;.p.t. .P.P.",
"P.P.P.C T ^ P.P.P.P.P.K.m m b P.P.P.k h f s P.P.P.P.P.i.9.6.P.P.",
"P.P.V A D ( P.P.P.P.K.m v v z c P.g f a a i i P.P.P.P.w.9.o.P.P.",
"P.P.N A ^ P.P.P.P.c v v z k j P.P.P.p i y y e w P.P.P.P.8.o.L P.",
"P.P.C T ! x n n c z k k h f d P.P.P.t y e q q 9 P.P.P.P.6.I [ P.",
"P.P.A D #.v v z k h h f a a i P.P.P.w q 0 0 8 8 P.P.P.P.5.I ' P.",
"P.P.A D $.z k h f f a a i y t P.P.P.9 0 8 6 6 5 2 P.P.P.X.I ) P.",
"P.P.T F $.h f f a i i y y e w P.P.P.7 6 5 5 3 3 2 P.P.P.X.] ) P.",
"P.P.T H #.a a i i y y e q 0 9 P.P.P.5 5 3 1 < > P.P.P.P.I ` ) P.",
"P.P.R H _ p u u r e q 0 8 8 7 P.P.P.2 1 < > : - P.P.P.P.[ ` / P.",
"P.P./ K U P.P.P.P.9 8 8 6 5 4 P.P.P., > : = * * P.P.P.P.] W E P.",
"P.P.G K @.P.P.P.P.P.6 5 5 3 2 P.P.P.; = * % # P.P.P.P.O.] W E P.",
"P.P.P.{ @.q.P.P.P.P.P.3 1 < , P.P.P.& % % # P.P.P.P.P.P ` ! P.P.",
"P.P.P...7.e.s.P.P.P.P.P.> : - P.P.P.# @ + P.P.P.P.P...I ` ( P.P.",
"P.P.P.P.r.e.f.=.P.P.P.P.P.P.* # # @ O o P.P.P.P.P.O.o.] Q P.P.P.",
"P.P.P.P.u.p.-.<.=.P.P.P.P.P.# O O .     P.P.P.P.9.@.I ' P.P.P.P.",
"P.P.P.P.P.s.*.<.f.+.P.P.P.P.o .         P.P.P.a.9.o.U P.P.P.P.P.",
"P.P.P.P.P.P.1.<.e.| / P.P.P.X       . $ P.:.i.t.8.P P.P.P.P.P.P.",
"P.P.P.P.P.P.P.P.0.K Y P.P.P.z.x.x.%.y.-.<.-.p.t.5.P.P.P.P.P.P.P.",
"P.P.P.P.P.P.P.P.P. .Z P.P.P.C.J.D.N.k.4.*.f.a.P.P.P.P.P.P.P.P.P.",
"P.P.P.P.P.P.P.P.P.P.P.P.P.P.S.H.A.m.h.3.&.P.P.P.P.P.P.P.P.P.P.P.",
"P.P.P.P.P.P.P.P.P.P.P.P.P.P.P.P.P.P.P.P.P.P.P.P.P.P.P.P.P.P.P.P.",
"P.P.P.P.P.P.P.P.P.P.P.P.P.P.P.P.P.P.P.P.P.P.P.P.P.P.P.P.P.P.P.P."
};
