/* XPM */
static char *result[] = {
/* columns rows colors chars-per-pixel */
"64 64 189 2 ",
"   c black",
".  c gray1",
"X  c #050506",
"o  c #0B0B0C",
"O  c #0F0F10",
"+  c #131312",
"@  c #161618",
"#  c #19191A",
"$  c #1A1A1B",
"%  c gray12",
"&  c #212122",
"*  c #272729",
"=  c #29292B",
"-  c #2C2C2D",
";  c #2D2D2E",
":  c #313133",
">  c #333334",
",  c #353537",
"<  c #373738",
"1  c #373739",
"2  c #3C3C3E",
"3  c #5F3F05",
"4  c #665A27",
"5  c #645D2B",
"6  c #70652F",
"7  c #414142",
"8  c #444446",
"9  c #454548",
"0  c #4A4A4C",
"q  c #4B4B4D",
"w  c #4D4D4F",
"e  c #4E4E50",
"r  c #505052",
"t  c #535355",
"y  c #545456",
"u  c #545557",
"i  c #565759",
"p  c #57585A",
"a  c #5A5B5D",
"s  c #5D5E60",
"d  c #5F6062",
"f  c #616163",
"g  c #616264",
"h  c #626365",
"j  c #646567",
"k  c #666769",
"l  c #68696B",
"z  c #696A6C",
"x  c #696A6D",
"c  c #6C6D70",
"v  c #6D6E71",
"b  c #6E7073",
"n  c #6F7174",
"m  c #707174",
"M  c #717274",
"N  c #727376",
"B  c #737477",
"V  c #747578",
"C  c #757679",
"Z  c #78797C",
"A  c #797A7C",
"S  c #7A7B7E",
"D  c #7B7C7F",
"F  c #944E34",
"G  c #985033",
"H  c #9E5532",
"J  c #9F5732",
"K  c #995535",
"L  c #A05732",
"P  c #A05832",
"I  c #A15932",
"U  c #A25932",
"Y  c #A35B32",
"T  c #A55D32",
"R  c #A65E32",
"E  c #856E30",
"W  c #B56A2F",
"Q  c #B66B2F",
"!  c #B66D2E",
"~  c #B76D2E",
"^  c #B96E2E",
"/  c #A07D27",
"(  c #BB732E",
")  c #BC712D",
"_  c #BF732D",
"`  c #BC772E",
"'  c #BB782E",
"]  c #BE7A2D",
"[  c #BD782E",
"{  c #A96031",
"}  c #AD6331",
"|  c #AE6430",
" . c #AC6831",
".. c #AE6C31",
"X. c #AE6E32",
"o. c #AF6E32",
"O. c #A66C3E",
"+. c #B06630",
"@. c #B36930",
"#. c #B26D32",
"$. c #B07031",
"%. c #B27131",
"&. c #B47130",
"*. c #B47331",
"=. c #BA7231",
"-. c #B87630",
";. c #C0762D",
":. c #C2762C",
">. c #C77A2B",
",. c #C77F2B",
"<. c #C3792E",
"1. c #C17D2D",
"2. c #C27D2D",
"3. c #CB7E2A",
"4. c #967546",
"5. c #8F715A",
"6. c #9F7350",
"7. c #AE7840",
"8. c #B37F44",
"9. c #807165",
"0. c #877567",
"q. c #E99A1E",
"w. c #E89A1F",
"e. c #EA9A1E",
"r. c #ED9D1C",
"t. c #F09F1A",
"y. c #F3A317",
"u. c #F4A417",
"i. c #F7A616",
"p. c #F0A019",
"a. c #F3A218",
"s. c #FBAC1B",
"d. c #FAAD1C",
"f. c #C6802C",
"g. c #CA802B",
"h. c #CF8329",
"j. c #CC822A",
"k. c #CB842A",
"l. c #D58927",
"z. c #D98A25",
"x. c #D88D26",
"c. c #DC8F24",
"v. c #DD8F24",
"b. c #D08228",
"n. c #D18729",
"m. c #D28728",
"M. c #D38828",
"N. c #D38928",
"B. c #C19025",
"V. c #DE9023",
"C. c #DE9024",
"Z. c #E09223",
"A. c #E39421",
"S. c #E49621",
"D. c #E69720",
"F. c #FBB121",
"G. c #FCB324",
"H. c #FDBA2D",
"J. c #FCBC31",
"K. c #FDC037",
"L. c #FEC53F",
"P. c #B98849",
"I. c #BC8D4C",
"U. c #C79C53",
"Y. c #D5B05E",
"T. c #DCBB63",
"R. c #FDCA47",
"E. c #FECB49",
"W. c #FFD150",
"Q. c #FFD75A",
"!. c #FFD95B",
"~. c #E0C167",
"^. c #E4C66A",
"/. c #E9CD6E",
"(. c #F3D568",
"). c #FFE166",
"_. c #FFE86F",
"`. c #FFE972",
"'. c #FFED77",
"]. c #F3E178",
"[. c #F7E77B",
"{. c #FFEF79",
"}. c #FEF17E",
"|. c #7D7E80",
" X c #7C7E81",
".X c #7D7E82",
"XX c #7E7F82",
"oX c #7E8083",
"OX c None",
/* pixels */
"OXOXOXOXOXOXOXOXOXOXOXOXOXOXOXOXOXOXOXOXOXOXOXOXOXOXOXOXOXOXOXOXOXOXOXOXOXOXOXOXOXOXOXOXOXOXOXOXOXOXOXOXOXOXOXOXOXOXOXOXOXOXOXOX",
"OXOXOXOXOXOXOXOXOXOXOXOXOXOXOXOXOXOXOXOXOXOXOXOXOXOXOXOXOXOXOXOXOXOXOXOXOXOXOXOXOXOXOXOXOXOXOXOXOXOXOXOXOXOXOXOXOXOXOXOXOXOXOXOX",
"OXOXOXOXOXOXOXOXOXOXOXOXOXOXOXOXOXOXOXOXOXOXOXOXOXOXOXOXOXOXOXOXOXOXOXOXOXOXOXOXOXOXOXOXOXOXOXOXOXOXOXOXOXOXOXOXOXOXOXOXOXOXOXOX",
"OXOXOXOXOXOXOXOXOXOXOXOXOXOXOXOXOXOXOXOXOXOXOXOXOXOXOXOXOXOXOXOXOXOXOXOXOXOXOXOXOXOXOXOXOXOXOXOXOXOXOXOXOXOXOXOXOXOXOXOXOXOXOXOX",
"OXOXOXOXOXOXOXOXOXOXOXOXOXOXOXOXOXOXOXOXOXOXOXOXOXOXOXa.y.D.OXOXOXOXOXOXJ J OXOXOXOXOXOXOXOXOXOXOXOXOXOXOXOXOXOXOXOXOXOXOXOXOXOX",
"OXOXOXOXOXOXOXOXOXOXOXOXOXOXOXOXOXOXOXOXOXOXOXOXD.e.r.u.i.w.V.OXOXOXOXOXG K K O.8.I.OXOXOXOXOXOXOXOXOXOXOXOXOXOXOXOXOXOXOXOXOXOX",
"OXOXOXOXOXOXOXOXOXOXOXOXOXOXOXOXOXOXOXOXOXg.x.Z.D.r.p.i.u.D.V.OXOXOXOXOXG K Y O.P.U.Y.^.(.OXOXOXOXOXOXOXOXOXOXOXOXOXOXOXOXOXOXOX",
"OXOXOXOXOXOXOXOXOXOXOXOXOXOXOXOXOXOXOXj.n.l.c.A.D.r.u.i.p.A.V.OXOXOXOXOXG K O.7.P.U.Y./.[.}.`.OXOXOXOXOXOXOXOXOXOXOXOXOXOXOXOXOX",
"OXOXOXOXOXOXOXOXOXOXOXOXOXOXOXOXOX;.3.b.n.z.c.A.w.p.u.i.r.Z.V.OXOXOXOXOXG K O.7.P.U.T./.[.}._.!.(.OXOXOXOXOXOXOXOXOXOXOXOXOXOXOX",
"OXOXOXOXOXOXOXOXOXOXOXOXOXOXOX[ _ >.3.b.l.z.Z.D.r.p.i.u.q.v.OXOXOXOXOXOXF K O.P.U.Y.~.].}.'.).!.W.J.OXOXOXOXOXOXOXOXOXOXOXOXOXOX",
"OXOXOXOXOXOXOXOXOXOXOXOXOXOX! ) :.>.3.b.l.c.Z.D.t.u.y.OXOXOXOXOXOXOXOXOXOXOXOXI.U.Y./.].}.'.).!.E.L.H.F.OXOXOXOXOXOXOXOXOXOXOXOX",
"OXOXOXOXOXOXOXOXOXOXOXOXOXW ^ _ :.>.b.n.z.c.v.V.OXOXOXOXOXOXOXOXOXOXOXOXOXOXOXOXOXOX(.].}._.).W.E.K.H.s.u.OXOXOXOXOXOXOXOXOXOXOX",
"OXOXOXOXOXOXOXOXOXOXOXOX| Q ) _ >.3.b.l.v.OXOXOXOXOXOXOXOXOXOXOXOXOXOXOXOXOXOXOXOXOXOXOX{.).!.W.L.K.G.s.i.u.OXOXOXOXOXOXOXOXOXOX",
"OXOXOXOXOXOXOXOXOXOXOX| @.Q ) :.>.3.h.m.OXOXOXOXOXOXOXOXOXOXOXOXOXOXOXOXOXOXOXOXOXOXOXOXOXOXQ.E.L.H.G.i.u.p.S.OXOXOXOXOXOXOXOXOX",
"OXOXOXOXOXOXOXOXOXOX| +.@.^ _ :.>.j.OXOXOXOXOXOXOXOXOXOXOXOXOXOXOXOXOXOXOXOXOXOXOXOXOXOXOXOXOXR.K.H.s.i.u.r.w.S.OXOXOXOXOXOXOXOX",
"OXOXOXOXOXOXOXOXOXI } +.Q ^ _ :.g.OXOXOXOXOXOXOXOXOXOXOXOXOXOXOXOXOXOXOXOXOXOXOXOXOXOXOXOXOXOXOXOXJ.s.i.p.r.D.Z.C.OXOXOXOXOXOXOX",
"OXOXOXOXOXOXOXOXT { } @.Q ) :.,.OXOXOXOXOXOXOXOXOXOXOXOXOXOXOXOXOXOXOXOXOXOXOXOXOXOXOXOXOXOXOXOXOXOXd.u.p.w.D.Z.c.OXOXOXOXOXOXOX",
"OXOXOXOXOXOXOXJ R { } @.^ ) g.OXOXOXOXOXOXOXOXOXOXOXOXD oX X.X.X X XA Z S S OXOXOXOXOXOXOXOXOXOXOXOXOXt.r.w.A.c.x.N.OXOXOXOXOXOX",
"OXOXOXOXOXOXOXI R } +.@.^ ;.OXOXOXOXOXOXOXOXOXOXOXS XX|.|.|.XXOXOXOXD A C C V m OXOXOXOXOXOXOXOXOXOXOXOXt.w.A.c.x.n.,.OXOXOXOXOX",
"OXOXOXOXOXOXP Y R } +.Q ` OXOXOXOXOXOXOXOXOXOXD XX|.|.|.|.|.D OXOXOXOXS C N N N M m OXOXOXOXOXOXOXOXOXOXy.D.Z.c.l.n.k.OXOXOXOXOX",
"OXOXOXOXOXOXL Y { } @.Q &.OXOXOXOXOXOXOXOXOXoX|.|.|.|.Z Z A OXOXOXOXOXOXN M b b b c v OXOXOXOXOXOXOXOXOXOXS.Z.c.l.n.k.g.OXOXOXOX",
"OXOXOXOXOXP L R { +.@.! OXOXOXOXOXOXOXOXOXS |.|.|.Z Z Z Z C OXOXOXOXOXv b b b c c x x l v OXOXOXOXOXOXOXOXOXc.x.n.n.k.2.OXOXOXOX",
"OXOXOXOXOXI Y R } +.Q OXOXOXOXOXOXOXOXOXS |.|.Z Z Z Z C C C B OXOXOXOXv c c c x x l k k k d OXOXOXOXOXOXOXOXD.x.n.k.f.2.[ OXOXOX",
"OXOXOXOX .L Y { } @.! OXOXOXOXOXOXOXOXS Z Z Z Z Z C C C N N M n v v v c c x x l k k j j j h OXOXOXOXOXOXOXOXOXl.n.k.f.2.` OXOXOX",
"OXOXOXOXH L R { } @. .OXOXOXOXOXOXOXOXZ Z Z C C C C N N M b m OXOXOXOXz l l k k j j j g g d d OXOXOXOXOXOXOXOXM.n.k.f.2.' OXOXOX",
"OXOXOXOXI Y R } +.W OXOXOXOXOXOXOXOXS Z C C C N N N M b b v OXOXOXOXOXOXl k j j g g g d d s s d OXOXOXOXOXOXOXOXk.f.2.] -.[ OXOX",
"OXOXOXOXL Y { } +.#.OXOXOXOXOXOXOXD C C C N N M b b b c c z OXOXOXOXOXOXf j g g d d s s s a a y OXOXOXOXOXOXOXOXh.f.2.] -.#.OXOX",
"OXOXOXJ L Y { } @.6.Z Z Z Z Z Z Z V C N N M b b c c c x x z OXOXOXOXOXOXf g d d s s s a a i i i OXOXOXOXOXOXOXOXj.f.2.' -.$.OXOX",
"OXOXOXP L R { +.@.5.Z Z Z C C C N N N M b b c c c x x l k z OXOXOXOXOXOXf d s s a a a i i i t t u OXOXOXOXOXOXOX,.f.] ' *.%.OXOX",
"OXOXOXH Y R } +.@.0.Z C C C N N M b b b c c x x x l k k j f OXOXOXOXOXOXf s a a i i i i t t t r y OXOXOXOXOXOXOXm.2.] -.*.o.OXOX",
"OXOXOXU Y { } @.@.0.C N N N M b b c c c x x l l k k j j j f OXOXOXOXOXOXp a i i i i t t t r r r q OXOXOXOXOXOXOX&.2.' -.%.o. .OX",
"OXOXOXU R { } @.%.9.N M M b b c c c x x l k k k j j g g g f OXOXOXOXOXOXp i i t t t t r r w w w q OXOXOXOXOXOXOXOX2.' -.%.o.&.OX",
"OXOXOXU R } +.Q %.9.b b b c c x x x l k k j j j g g d d s f OXOXOXOXOXOXp t t t r r r w w w 0 0 q OXOXOXOXOXOXOXOX] -.*.o.o.&.OX",
"OXOXOXU { } +.Q *.9.c c c x x l l k k j j j g g d d s s s p OXOXOXOXOXOXe t r r r w w w 0 0 0 9 q OXOXOXOXOXOXOXOX] -.*.o.o. .OX",
"OXOXOXT { } @.^ =.9.c x x l k k j j j g g g d d s s a a a p OXOXOXOXOXOXe r w w w 0 0 0 9 9 9 7 2 OXOXOXOXOXOXOX( ' -.%.o.o.OXOX",
"OXOXOXP { +.@.^ _ 5.x l k k j j j g g d d s s s a a i i i p OXOXOXOXOXOXe w w 0 0 0 9 9 9 7 7 2 : OXOXOXOXOXOXOX[ ' *.%.o.o.OXOX",
"OXOXOXJ } +.Q ^ :.4.k k j j j g g d d s s a a a i i i t t p OXOXOXOXOXOXe 0 0 0 9 9 7 7 2 2 < > , OXOXOXOXOXOXOX;.-.*.o.o.$.OXOX",
"OXOXOXOX} @.Q ) :.7.k j g g g d d s s a a a i i i t t t t e OXOXOXOXOXOX8 9 9 9 7 7 2 2 < > > = OXOXOXOXOXOXOXOX` -.%.o.o...OXOX",
"OXOXOXOX| @.^ _ :.<.OXOXOXOXOXOXOXOXs i i i i t t t r r r e OXOXOXOXOXOX8 9 7 7 2 < < > > ; ; : OXOXOXOXOXOXOXOX' -.%.o.o.X.OXOX",
"OXOXOXOX#.Q ^ _ :.>.OXOXOXOXOXOXOXOXu i t t t t r r w w w e OXOXOXOXOXOX8 2 2 < > > ; ; * * = OXOXOXOXOXOXOXOX[ -.*.o.o.o.&.OXOX",
"OXOXOXOX( Q ) _ >.3.,.OXOXOXOXOXOXOXOXy t t r r w w w 0 0 e OXOXOXOXOXOX1 < > > ; ; * * & & @ OXOXOXOXOXOXOXOX` -.*.o.o.$.OXOXOX",
"OXOXOXOXOX~ ) :.>.3.h.OXOXOXOXOXOXOXOXOXq r w w w 0 0 0 9 8 OXOXOXOXOXOX1 > ; ; * * & & # $ OXOXOXOXOXOXOXOX( ' -.%.o.o.! OXOXOX",
"OXOXOXOXOX! _ :.>.3.n.C.OXOXOXOXOXOXOXOXOXq w 0 0 0 9 9 7 8 OXOXOXOXOXOX- * * & & & # # O OXOXOXOXOXOXOXOXOX` ' *.%.o.o. .OXOXOX",
"OXOXOXOXOXOX_ :.3.b.l.x.OXOXOXOXOXOXOXOXOXOXq 9 9 9 7 7 2 1 OXOXOXOXOXOX* & & # # # + O OXOXOXOXOXOXOXOXOX[ ] -.*.o.o...OXOXOXOX",
"OXOXOXOXOXOX;.>.3.b.l.z.S.OXOXOXOXOXOXOXOXOXOX8 7 7 2 < < < OXOXOXOXOXOX% # # + + O @ OXOXOXOXOXOXOXOXOXOX<.' -.%.o.o.&.OXOXOXOX",
"OXOXOXOXOXOXOX>.3.b.l.c.Z.C.OXOXOXOXOXOXOXOXOXOX, 2 > > ; ; * OXOXOXOX$ # + + O O OXOXOXOXOXOXOXOXOXOXOX1.] ' -.%.o...OXOXOXOXOX",
"OXOXOXOXOXOXOXg.b.n.z.c.A.w.a.OXOXOXOXOXOXOXOXOXOXOX, - * * & % $ $ # + + o o O OXOXOXOXOXOXOXOXOXOXOXg.2.] -.*.o.o.OXOXOXOXOXOX",
"OXOXOXOXOXOXOXOXN.l.z.Z.D.w.t.a.OXOXOXOXOXOXOXOXOXOXOXOX% & # # + + + o o X X   OXOXOXOXOXOXOXOXOXOX,.f.2.' -.*.o.X.OXOXOXOXOXOX",
"OXOXOXOXOXOXOXOXOXl.c.Z.D.r.p.u.a.OXOXOXOXOXOXOXOXOXOXOX% # + + o o o X X       OXOXOXOXOXOXOXOXOXg.k.f.2.' -.%...OXOXOXOXOXOXOX",
"OXOXOXOXOXOXOXOXOXm.c.A.w.r.u.i.r.C.OXOXOXOXOXOXOXOXOXOXO + o o X X             OXOXOXOXOXOXOXOXM.k.f.2.] ' *.$.OXOXOXOXOXOXOXOX",
"OXOXOXOXOXOXOXOXOXOXC.A.w.p.u.i.r.c.M.OXOXOXOXOXOXOXOXOXO o X X                 OXOXOXOXOXOXOXN.n.k.f.2.] -.$.OXOXOXOXOXOXOXOXOX",
"OXOXOXOXOXOXOXOXOXOXOXD.r.p.i.u.D.z.b.<.( OXOXOXOXOXOXOX. X                     OXOXOXOXOXD.c.l.n.k.f.2.' -.OXOXOXOXOXOXOXOXOXOX",
"OXOXOXOXOXOXOXOXOXOXOXOXD.p.i.p.A.l.3.:.Q ..OXOXOXOXOXOX.                       OXOXOXD.Z.c.x.l.n.k.f.] ` OXOXOXOXOXOXOXOXOXOXOX",
"OXOXOXOXOXOXOXOXOXOXOXOXOXy.u.r.Z.l.3._ @.{ OXOXOXOXOXOX.                   + 3 y.u.r.w.A.c.x.n.k.f.2.1.OXOXOXOXOXOXOXOXOXOXOXOX",
"OXOXOXOXOXOXOXOXOXOXOXOXOXOXOXe.c.b.>.) +.R OXOXOXOXOXOX4.E 6 6 5 4 6 E / B.w.i.u.p.r.D.Z.c.l.n.k.f.,.OXOXOXOXOXOXOXOXOXOXOXOXOX",
"OXOXOXOXOXOXOXOXOXOXOXOXOXOXOXOXC.h.:.^ } Y OXOXOXOXOXOXY./.[.}.'.).!.W.L.H.G.i.u.p.w.A.c.x.l.n.j.OXOXOXOXOXOXOXOXOXOXOXOXOXOXOX",
"OXOXOXOXOXOXOXOXOXOXOXOXOXOXOXOXOXOX;.@.{ L OXOXOXOXOXOXY./.[.}._.).W.E.K.H.s.i.p.r.w.A.c.x.N.m.OXOXOXOXOXOXOXOXOXOXOXOXOXOXOXOX",
"OXOXOXOXOXOXOXOXOXOXOXOXOXOXOXOXOXOXOXOXT K OXOXOXOXOXOXT./.}.'._.!.W.L.K.G.s.i.p.r.D.Z.v.m.OXOXOXOXOXOXOXOXOXOXOXOXOXOXOXOXOXOX",
"OXOXOXOXOXOXOXOXOXOXOXOXOXOXOXOXOXOXOXOXOXOXOXOXOXOXOXOX~.].}.'.).!.W.L.H.G.i.u.p.q.D.OXOXOXOXOXOXOXOXOXOXOXOXOXOXOXOXOXOXOXOXOX",
"OXOXOXOXOXOXOXOXOXOXOXOXOXOXOXOXOXOXOXOXOXOXOXOXOXOXOXOX^.].}._.).!.E.K.J.d.u.y.OXOXOXOXOXOXOXOXOXOXOXOXOXOXOXOXOXOXOXOXOXOXOXOX",
"OXOXOXOXOXOXOXOXOXOXOXOXOXOXOXOXOXOXOXOXOXOXOXOXOXOXOXOXOXOXOXOXOXOXOXOXOXOXOXOXOXOXOXOXOXOXOXOXOXOXOXOXOXOXOXOXOXOXOXOXOXOXOXOX",
"OXOXOXOXOXOXOXOXOXOXOXOXOXOXOXOXOXOXOXOXOXOXOXOXOXOXOXOXOXOXOXOXOXOXOXOXOXOXOXOXOXOXOXOXOXOXOXOXOXOXOXOXOXOXOXOXOXOXOXOXOXOXOXOX",
"OXOXOXOXOXOXOXOXOXOXOXOXOXOXOXOXOXOXOXOXOXOXOXOXOXOXOXOXOXOXOXOXOXOXOXOXOXOXOXOXOXOXOXOXOXOXOXOXOXOXOXOXOXOXOXOXOXOXOXOXOXOXOXOX",
"OXOXOXOXOXOXOXOXOXOXOXOXOXOXOXOXOXOXOXOXOXOXOXOXOXOXOXOXOXOXOXOXOXOXOXOXOXOXOXOXOXOXOXOXOXOXOXOXOXOXOXOXOXOXOXOXOXOXOXOXOXOXOXOX"
};
