/* XPM */
static char *result[] = {
/* columns rows colors chars-per-pixel */
"16 16 106 2 ",
"   c black",
".  c #040404",
"X  c #0C0C0C",
"o  c #101011",
"O  c #19191A",
"+  c #212122",
"@  c #272728",
"#  c #2B2B2C",
"$  c #2F2F30",
"%  c #373738",
"&  c #3A3A3C",
"*  c #7C5713",
"=  c #574C27",
"-  c #584C21",
";  c #434345",
":  c #454547",
">  c #48484A",
",  c #4B4B4D",
"<  c #4D4D4F",
"1  c #505052",
"2  c #525254",
"3  c #555658",
"4  c #57585A",
"5  c #5A5B5D",
"6  c #5B5D5F",
"7  c #5D5D5F",
"8  c #5E5F62",
"9  c #5F6062",
"0  c #626264",
"q  c #626466",
"w  c #646566",
"e  c #656668",
"r  c #666669",
"t  c #69696C",
"y  c #696A6C",
"u  c #6A6B6E",
"i  c #6C6D70",
"p  c #6D6E71",
"a  c #6D6F71",
"s  c #6F7073",
"d  c #727376",
"f  c #737477",
"g  c #757578",
"h  c #757779",
"j  c #767779",
"k  c #78797C",
"l  c #7C7E7F",
"z  c #A35C33",
"x  c #A45C32",
"c  c #A05C37",
"v  c #B1662F",
"b  c #B66B2E",
"n  c #BA712D",
"m  c #BE722E",
"M  c #B9762F",
"N  c #BB772F",
"B  c #BE7A2E",
"V  c #AB6130",
"C  c #AD6330",
"Z  c #AC6332",
"A  c #A56B3C",
"S  c #B06631",
"D  c #B27031",
"F  c #B37131",
"G  c #B17132",
"H  c #B17133",
"J  c #B47331",
"K  c #C07B2E",
"L  c #C57F2C",
"P  c #CB7E2A",
"I  c #9B7247",
"U  c #836E5D",
"Y  c #A66E42",
"T  c #887362",
"R  c #E6981F",
"E  c #E99B1E",
"W  c #EB9B1E",
"Q  c #EC9D1C",
"!  c #ED9E1C",
"~  c #F0A01A",
"^  c #F1A11A",
"/  c #C5802B",
"(  c #CA802B",
")  c #CA822A",
"_  c #CA832A",
"`  c #CC8028",
"'  c #CE8229",
"]  c #D68826",
"[  c #DA8D25",
"{  c #DA8E25",
"}  c #DB8F26",
"|  c #DE8F24",
" . c #D38829",
".. c #DD9026",
"X. c #E09323",
"o. c #E79821",
"O. c #FCB224",
"+. c #FCB628",
"@. c #FEC039",
"#. c #CBA158",
"$. c #DCBA64",
"%. c #FED757",
"&. c #F5DF74",
"*. c #FFE56D",
"=. c #7C7E80",
"-. c None",
/* pixels */
"-.-.-.-.-.-.-.-.-.-.-.-.-.-.-.-.",
"-.-.-.-.-.} ! E -.c #.-.-.-.-.-.",
"-.-.-.-.P { ^ -.-.A $.*.@.-.-.-.",
"-.-.-.n ( -.-.-.-.-.-.-.+.Q -.-.",
"-.-.C m -.-.-.=.-.g -.-.-.R  .-.",
"-.z S -.-.l k h -.i t -.-..._ -.",
"-.x Y -.j f s a -.w 9 6 -.-.L -.",
"-.V T d p u r -.-.5 3 2 -.-.K F ",
"-.v U y e 0 7 -.-.1 , : -.-.M D ",
"-.b I q 8 4 2 -.-.; & $ -.-.J -.",
"-.m ' -.-.< > -.-.# + -.-.-.H -.",
"-.-.] o.-.-.% @ O o -.-.-.B G -.",
"-.-.X.~ | -.-.X .   -.-.) N -.-.",
"-.-.-.-.` Z -.= - * Q [ / -.-.-.",
"-.-.-.-.-.-.-.&.%.O.W -.-.-.-.-.",
"-.-.-.-.-.-.-.-.-.-.-.-.-.-.-.-."
};
