<svg id="svg" version="1.1" xmlns="http://www.w3.org/2000/svg" xmlns:xlink="http://www.w3.org/1999/xlink" width="400" height="400" viewBox="0, 0, 400,400"><g id="svgg"><path id="path0" d="M187.166 26.167 C 187.074 26.259,185.469 26.532,183.599 26.772 C 179.570 27.291,176.423 27.823,171.000 28.902 C 164.814 30.134,164.062 30.305,160.000 31.412 C 157.910 31.982,155.300 32.688,154.200 32.981 C 151.762 33.631,145.048 35.859,143.400 36.566 C 142.740 36.849,141.570 37.305,140.800 37.580 C 139.333 38.105,138.928 38.269,136.000 39.533 C 135.010 39.961,133.210 40.723,132.000 41.228 C 94.187 57.012,61.190 91.221,42.516 134.000 C 42.180 134.770,41.656 135.967,41.353 136.660 C 41.049 137.354,40.800 138.121,40.800 138.366 C 40.800 138.611,40.631 139.123,40.425 139.505 C 39.961 140.365,38.296 145.050,37.406 148.000 C 37.041 149.210,36.589 150.560,36.402 151.000 C 36.214 151.440,35.976 152.250,35.874 152.800 C 35.772 153.350,35.224 155.574,34.656 157.743 C 33.747 161.217,32.999 164.667,31.609 171.800 C 28.297 188.793,28.659 217.372,32.405 234.600 C 32.596 235.480,33.057 237.640,33.429 239.400 C 35.219 247.866,39.401 261.207,42.581 268.600 C 42.865 269.260,43.432 270.610,43.841 271.600 C 45.915 276.622,53.062 290.185,55.961 294.600 C 56.972 296.140,57.862 297.543,57.939 297.718 C 58.074 298.025,59.063 299.478,62.713 304.729 C 64.219 306.897,70.619 315.034,71.773 316.250 C 72.008 316.497,73.730 318.377,75.600 320.427 C 86.532 332.413,97.339 341.320,113.200 351.415 C 117.539 354.177,129.860 360.512,136.002 363.140 C 137.211 363.657,138.740 364.312,139.400 364.596 C 143.433 366.328,143.187 367.531,143.194 346.074 C 143.200 327.940,143.078 326.000,141.930 326.000 C 141.244 326.000,132.433 321.005,128.202 318.217 C 116.849 310.736,102.962 298.064,96.134 288.955 C 95.658 288.320,94.893 287.367,94.434 286.839 C 93.975 286.310,93.600 285.770,93.599 285.639 C 93.599 285.507,93.051 284.770,92.382 284.000 C 89.752 280.971,82.725 269.318,79.356 262.400 C 76.352 256.229,76.000 255.466,76.000 255.123 C 76.000 254.943,75.550 253.863,75.000 252.723 C 74.450 251.583,74.000 250.412,74.000 250.120 C 74.000 249.828,73.822 249.277,73.605 248.895 C 72.437 246.839,70.720 240.619,71.137 239.952 C 71.481 239.402,71.437 239.227,70.930 239.127 C 68.673 238.682,65.224 215.316,65.214 200.400 C 65.207 190.150,67.199 173.711,69.092 168.400 C 69.210 168.070,69.361 167.440,69.428 167.000 C 70.201 161.952,75.574 147.651,80.085 138.636 C 84.485 129.844,93.540 115.705,96.375 113.200 C 96.500 113.090,97.622 111.738,98.868 110.195 C 110.009 96.409,131.652 80.200,148.000 73.399 C 149.430 72.804,151.320 72.004,152.200 71.622 C 153.080 71.239,154.430 70.700,155.200 70.423 C 155.970 70.146,156.960 69.762,157.400 69.570 C 158.671 69.014,163.881 67.370,167.800 66.287 C 171.006 65.401,172.655 65.025,179.600 63.595 C 181.469 63.211,186.336 62.471,189.800 62.046 L 191.800 61.800 191.904 43.900 L 192.008 26.000 189.671 26.000 C 188.385 26.000,187.258 26.075,187.166 26.167 M224.480 26.880 C 223.773 27.587,223.792 61.181,224.500 62.088 C 224.802 62.475,226.424 62.989,228.600 63.389 C 235.496 64.653,243.869 66.853,250.000 69.011 C 251.430 69.514,253.500 70.242,254.600 70.629 C 255.700 71.016,256.771 71.482,256.980 71.666 C 257.189 71.850,257.589 72.000,257.869 72.000 C 258.681 72.000,270.173 77.420,274.000 79.608 C 280.023 83.051,287.589 88.171,294.630 93.568 C 296.732 95.179,309.350 107.529,311.423 110.005 C 324.190 125.246,333.659 142.238,338.613 158.800 C 338.975 160.010,339.422 161.360,339.606 161.800 C 339.789 162.240,340.029 163.050,340.139 163.600 C 340.248 164.150,340.619 165.680,340.963 167.000 C 346.952 189.987,346.636 213.626,339.992 239.600 C 330.434 276.963,297.622 314.221,260.400 329.977 C 258.750 330.676,257.040 331.402,256.600 331.591 C 256.160 331.781,254.450 332.415,252.800 333.001 C 251.150 333.587,249.308 334.252,248.707 334.479 C 248.106 334.706,247.318 334.777,246.956 334.639 C 246.594 334.500,246.096 334.635,245.849 334.938 C 245.192 335.746,242.566 336.492,233.000 338.584 C 224.664 340.408,217.853 341.000,205.200 341.000 C 194.152 341.000,188.742 340.656,183.000 339.588 C 181.900 339.383,179.695 338.975,178.100 338.680 L 175.200 338.144 175.200 356.258 C 175.200 373.109,175.249 374.396,175.900 374.724 C 176.285 374.918,178.220 375.298,180.200 375.570 C 182.180 375.842,184.970 376.233,186.400 376.438 C 197.193 377.990,224.451 376.895,237.000 374.407 C 245.044 372.811,247.381 372.266,251.800 370.953 C 252.900 370.626,254.430 370.210,255.200 370.028 C 256.820 369.644,264.922 366.966,266.400 366.326 C 267.632 365.792,267.901 365.682,273.600 363.387 C 278.419 361.445,289.402 356.081,291.247 354.766 C 291.839 354.345,292.443 354.000,292.589 354.000 C 293.066 354.000,305.738 345.940,308.200 344.070 C 309.520 343.068,311.320 341.709,312.200 341.050 C 332.964 325.502,352.414 301.473,363.973 277.090 C 366.257 272.272,366.707 271.234,369.133 265.200 C 372.410 257.048,376.631 242.191,378.338 232.800 C 379.383 227.056,379.617 225.537,380.002 222.000 C 381.811 205.398,381.491 189.473,379.037 174.000 C 378.706 171.910,378.328 169.480,378.198 168.600 C 378.068 167.720,377.709 166.010,377.401 164.800 C 377.092 163.590,376.380 160.710,375.818 158.400 C 374.446 152.759,371.578 143.326,370.406 140.600 C 370.217 140.160,369.748 138.900,369.365 137.800 C 368.982 136.700,368.518 135.629,368.334 135.420 C 368.150 135.211,368.000 134.819,368.000 134.548 C 368.000 132.714,358.637 114.386,354.438 108.000 C 353.208 106.130,352.129 104.428,352.040 104.217 C 351.284 102.429,343.021 91.723,337.362 85.200 C 327.227 73.517,308.373 57.612,297.248 51.360 C 296.504 50.942,295.604 50.419,295.248 50.198 C 285.066 43.877,268.891 36.580,257.200 33.036 C 255.330 32.469,253.260 31.837,252.600 31.631 C 250.610 31.012,243.222 29.292,239.600 28.606 C 232.954 27.346,232.162 27.215,228.810 26.810 C 224.674 26.310,225.057 26.303,224.480 26.880 M207.500 104.682 C 207.995 104.778,208.805 104.778,209.300 104.682 C 209.795 104.587,209.390 104.509,208.400 104.509 C 207.410 104.509,207.005 104.587,207.500 104.682 M214.305 105.083 C 214.802 105.179,215.522 105.175,215.905 105.075 C 216.287 104.975,215.880 104.896,215.000 104.901 C 214.120 104.905,213.807 104.987,214.305 105.083 M271.183 130.500 C 272.164 131.545,273.019 132.400,273.083 132.400 C 273.384 132.400,273.066 132.041,271.300 130.383 L 269.400 128.600 271.183 130.500 M275.183 134.500 C 276.164 135.545,277.019 136.400,277.083 136.400 C 277.384 136.400,277.066 136.041,275.300 134.383 L 273.400 132.600 275.183 134.500 M174.249 135.100 L 196.698 135.207 197.730 136.239 C 200.604 139.113,199.195 147.896,194.966 153.473 C 194.435 154.174,194.000 154.838,194.000 154.950 C 194.000 155.062,188.600 163.824,182.000 174.420 C 175.400 185.016,170.000 193.761,170.000 193.852 C 170.000 193.944,169.370 194.935,168.600 196.055 C 167.830 197.174,167.200 198.250,167.200 198.445 C 167.200 199.076,167.899 198.821,168.148 198.100 C 168.418 197.314,168.365 197.403,174.204 188.031 C 176.539 184.283,178.618 181.112,178.825 180.985 C 179.031 180.857,179.200 180.418,179.200 180.010 C 179.200 179.601,179.352 179.207,179.538 179.133 C 179.863 179.005,186.000 169.320,186.000 168.935 C 186.000 168.831,186.405 168.174,186.901 167.473 C 188.291 165.509,188.803 164.662,189.058 163.900 C 189.188 163.515,189.411 163.200,189.556 163.200 C 189.700 163.200,190.172 162.525,190.605 161.700 C 191.038 160.875,191.492 160.110,191.614 160.000 C 192.002 159.650,195.200 154.431,195.200 154.148 C 195.200 153.998,195.614 153.319,196.119 152.638 C 199.404 148.212,200.780 142.033,199.390 137.951 C 198.260 134.637,199.503 134.787,174.138 134.897 L 151.800 134.993 174.249 135.100 M159.126 147.100 C 163.155 147.165,169.635 147.165,173.526 147.099 C 177.417 147.034,174.120 146.980,166.200 146.981 C 158.280 146.981,155.097 147.034,159.126 147.100 M233.715 185.096 C 234.988 185.176,236.968 185.175,238.115 185.094 C 239.262 185.014,238.220 184.949,235.800 184.950 C 233.380 184.951,232.442 185.016,233.715 185.096 M241.500 185.996 L 242.800 186.788 242.800 223.000 L 242.800 259.212 241.500 260.004 C 240.785 260.440,240.475 260.798,240.811 260.799 C 241.147 260.799,241.822 260.520,242.311 260.177 L 243.200 259.555 243.200 223.000 L 243.200 186.445 242.311 185.823 C 241.822 185.480,241.147 185.201,240.811 185.201 C 240.475 185.202,240.785 185.560,241.500 185.996 M301.693 193.600 C 301.693 194.370,301.775 194.685,301.876 194.300 C 301.976 193.915,301.976 193.285,301.876 192.900 C 301.775 192.515,301.693 192.830,301.693 193.600 M184.000 199.193 L 199.800 199.400 200.277 200.800 C 200.892 202.603,200.892 207.397,200.277 209.200 L 199.800 210.600 176.000 210.805 L 152.200 211.010 175.830 211.105 L 199.461 211.200 200.330 210.274 C 201.115 209.439,201.200 208.916,201.200 204.944 C 201.200 198.239,202.757 198.780,183.774 198.893 L 168.200 198.986 184.000 199.193 M301.693 208.800 C 301.693 209.570,301.775 209.885,301.876 209.500 C 301.976 209.115,301.976 208.485,301.876 208.100 C 301.775 207.715,301.693 208.030,301.693 208.800 M233.715 261.096 C 234.988 261.176,236.968 261.175,238.115 261.094 C 239.262 261.014,238.220 260.949,235.800 260.950 C 233.380 260.951,232.442 261.016,233.715 261.096 M277.775 265.300 L 276.600 266.600 277.900 265.425 C 278.615 264.779,279.200 264.194,279.200 264.125 C 279.200 263.816,278.870 264.088,277.775 265.300 M273.586 269.900 L 271.400 272.200 273.700 270.014 C 275.837 267.982,276.183 267.600,275.886 267.600 C 275.824 267.600,274.789 268.635,273.586 269.900 M138.000 270.925 C 138.000 270.994,138.585 271.579,139.300 272.225 L 140.600 273.400 139.425 272.100 C 138.330 270.888,138.000 270.616,138.000 270.925 M174.987 315.600 C 174.987 327.810,175.038 332.805,175.100 326.700 C 175.162 320.595,175.162 310.605,175.100 304.500 C 175.038 298.395,174.987 303.390,174.987 315.600 " stroke="none" fill="#bc7535" fill-rule="evenodd"></path><path id="path1" d="M195.600 105.016 C 189.315 105.775,188.225 105.967,183.000 107.233 C 178.273 108.378,173.741 109.753,170.600 110.996 C 169.720 111.344,168.640 111.743,168.200 111.882 C 157.388 115.306,137.909 129.785,129.800 140.425 C 128.720 141.841,127.731 143.090,127.602 143.200 C 125.721 144.797,118.268 158.111,115.958 164.000 C 115.225 165.870,114.559 167.490,114.479 167.600 C 114.399 167.710,104.141 167.890,91.683 168.000 L 69.033 168.200 68.718 169.600 C 64.898 186.619,64.228 204.909,66.776 222.600 C 67.715 229.118,69.831 238.364,70.547 239.081 C 70.723 239.256,81.055 239.490,93.507 239.600 L 116.149 239.800 118.604 244.600 C 121.810 250.865,123.691 253.924,127.758 259.483 C 137.190 272.372,154.696 285.540,170.200 291.409 C 172.400 292.242,174.423 293.096,174.697 293.308 C 175.079 293.604,175.217 298.797,175.297 315.946 L 175.400 338.200 178.200 338.703 C 179.740 338.980,181.900 339.376,183.000 339.583 C 188.674 340.651,194.135 341.000,205.200 341.000 C 217.853 341.000,224.664 340.408,233.000 338.584 C 242.754 336.451,245.193 335.748,245.900 334.869 C 246.286 334.388,246.401 329.157,246.406 311.824 C 246.409 299.491,246.544 289.198,246.706 288.951 C 246.868 288.704,248.260 287.867,249.800 287.092 C 251.340 286.317,253.770 284.943,255.200 284.039 C 256.630 283.135,258.070 282.274,258.400 282.126 C 260.621 281.130,271.046 272.522,274.853 268.539 C 282.533 260.505,290.410 248.518,294.278 238.978 C 297.231 231.693,298.735 226.739,300.161 219.600 C 302.989 205.438,302.311 188.454,298.381 175.000 C 296.957 170.125,293.831 161.783,293.143 161.020 C 292.954 160.811,292.800 160.427,292.800 160.166 C 292.800 159.570,288.308 151.519,285.899 147.796 C 276.969 133.998,261.932 120.967,246.800 113.914 C 239.877 110.687,236.405 109.413,229.800 107.678 C 218.963 104.830,205.684 103.797,195.600 105.016 M197.628 135.480 C 201.271 137.632,200.466 146.782,196.119 152.638 C 195.614 153.319,195.200 153.998,195.200 154.148 C 195.200 154.431,192.002 159.650,191.614 160.000 C 191.492 160.110,191.038 160.875,190.605 161.700 C 190.172 162.525,189.700 163.200,189.556 163.200 C 189.411 163.200,189.188 163.515,189.058 163.900 C 188.803 164.662,188.291 165.509,186.901 167.473 C 186.405 168.174,186.000 168.831,186.000 168.935 C 186.000 169.320,179.863 179.005,179.538 179.133 C 179.352 179.207,179.200 179.552,179.200 179.902 C 179.200 180.251,178.948 180.821,178.639 181.169 C 177.833 182.077,169.200 195.984,169.200 196.375 C 169.200 196.555,168.930 196.926,168.600 197.200 C 166.752 198.734,167.377 198.800,183.674 198.800 C 202.769 198.800,201.200 198.250,201.200 204.944 C 201.200 208.916,201.115 209.439,200.330 210.274 L 199.461 211.200 176.104 211.200 C 151.831 211.200,152.000 211.211,150.100 209.480 C 149.278 208.732,149.200 208.304,149.200 204.542 C 149.200 199.252,149.199 199.254,158.657 184.132 C 162.762 177.569,166.408 171.718,166.760 171.130 C 167.376 170.099,170.042 165.783,171.890 162.824 C 172.379 162.041,173.081 160.860,173.449 160.200 C 173.817 159.540,174.542 158.443,175.059 157.762 C 175.577 157.081,176.000 156.378,176.000 156.200 C 176.000 156.022,176.413 155.319,176.918 154.638 C 177.961 153.230,181.200 147.779,181.200 147.430 C 181.200 147.304,174.650 147.200,166.644 147.200 C 148.730 147.200,150.200 147.754,150.200 141.000 C 150.200 134.117,147.548 134.800,174.283 134.800 C 194.455 134.800,196.581 134.862,197.628 135.480 M242.118 185.709 L 243.200 186.418 243.200 223.000 L 243.200 259.582 242.117 260.291 C 240.406 261.411,230.759 261.329,228.800 260.178 L 227.400 259.355 227.298 223.088 L 227.196 186.821 228.208 186.158 C 230.555 184.620,239.992 184.316,242.118 185.709 " stroke="none" fill="#64646c" fill-rule="evenodd"></path><path id="path2" d="M0.000 200.000 L 0.000 400.000 200.000 400.000 L 400.000 400.000 400.000 200.000 L 400.000 0.000 200.000 0.000 L 0.000 0.000 0.000 200.000 M191.904 43.900 L 191.800 61.800 189.800 62.046 C 186.336 62.471,181.469 63.211,179.600 63.595 C 172.655 65.025,171.006 65.401,167.800 66.287 C 163.881 67.370,158.671 69.014,157.400 69.570 C 156.960 69.762,155.970 70.146,155.200 70.423 C 154.430 70.700,153.080 71.239,152.200 71.622 C 151.320 72.004,149.430 72.804,148.000 73.399 C 131.652 80.200,110.009 96.409,98.868 110.195 C 97.622 111.738,96.500 113.090,96.375 113.200 C 92.210 116.881,80.237 136.944,76.087 147.200 C 72.484 156.103,68.962 167.122,69.537 167.697 C 69.707 167.867,79.812 167.960,91.992 167.903 L 114.137 167.800 116.169 162.995 C 122.073 149.028,130.962 137.028,142.840 126.993 C 146.274 124.091,146.854 123.671,152.956 119.676 C 178.740 102.796,213.577 99.731,242.571 111.792 C 246.518 113.434,253.024 116.735,254.788 117.992 C 255.413 118.436,256.004 118.800,256.102 118.800 C 256.850 118.800,262.753 123.141,268.147 127.659 C 307.067 160.255,313.330 219.173,282.238 260.200 C 280.043 263.096,274.336 269.569,272.540 271.200 C 268.768 274.624,259.990 281.652,258.999 282.042 C 258.779 282.129,256.889 283.215,254.799 284.454 C 252.710 285.694,250.010 287.224,248.800 287.854 L 246.600 289.000 246.497 311.711 C 246.383 336.606,246.266 335.399,248.707 334.479 C 249.308 334.252,251.150 333.587,252.800 333.001 C 254.450 332.415,256.160 331.781,256.600 331.591 C 257.040 331.402,258.750 330.676,260.400 329.977 C 297.622 314.221,330.434 276.963,339.992 239.600 C 342.400 230.185,343.508 224.632,344.461 217.200 C 345.186 211.549,345.188 191.206,344.464 185.800 C 343.540 178.898,342.231 171.865,340.963 167.000 C 340.619 165.680,340.248 164.150,340.139 163.600 C 340.029 163.050,339.789 162.240,339.606 161.800 C 339.422 161.360,338.975 160.010,338.613 158.800 C 333.659 142.238,324.190 125.246,311.423 110.005 C 309.350 107.529,296.732 95.179,294.630 93.568 C 287.589 88.171,280.023 83.051,274.000 79.608 C 270.173 77.420,258.681 72.000,257.869 72.000 C 257.589 72.000,257.189 71.850,256.980 71.666 C 256.771 71.482,255.700 71.016,254.600 70.629 C 253.500 70.242,251.430 69.514,250.000 69.011 C 243.869 66.853,235.496 64.653,228.600 63.389 C 223.587 62.469,224.000 64.176,224.000 44.373 C 224.000 24.455,223.543 26.178,228.660 26.793 C 232.153 27.212,232.891 27.335,239.600 28.606 C 243.222 29.292,250.610 31.012,252.600 31.631 C 253.260 31.837,255.330 32.469,257.200 33.036 C 268.891 36.580,285.066 43.877,295.248 50.198 C 295.604 50.419,296.504 50.942,297.248 51.360 C 308.373 57.612,327.227 73.517,337.362 85.200 C 343.021 91.723,351.284 102.429,352.040 104.217 C 352.129 104.428,353.208 106.130,354.438 108.000 C 358.637 114.386,368.000 132.714,368.000 134.548 C 368.000 134.819,368.150 135.211,368.334 135.420 C 368.518 135.629,368.982 136.700,369.365 137.800 C 369.748 138.900,370.217 140.160,370.406 140.600 C 371.578 143.326,374.446 152.759,375.818 158.400 C 376.380 160.710,377.092 163.590,377.401 164.800 C 377.709 166.010,378.068 167.720,378.198 168.600 C 378.328 169.480,378.706 171.910,379.037 174.000 C 381.491 189.473,381.811 205.398,380.002 222.000 C 379.617 225.537,379.383 227.056,378.338 232.800 C 376.631 242.191,372.410 257.048,369.133 265.200 C 366.707 271.234,366.257 272.272,363.973 277.090 C 352.414 301.473,332.964 325.502,312.200 341.050 C 311.320 341.709,309.520 343.068,308.200 344.070 C 305.738 345.940,293.066 354.000,292.589 354.000 C 292.443 354.000,291.839 354.345,291.247 354.766 C 289.402 356.081,278.419 361.445,273.600 363.387 C 267.901 365.682,267.632 365.792,266.400 366.326 C 264.922 366.966,256.820 369.644,255.200 370.028 C 254.430 370.210,252.900 370.626,251.800 370.953 C 247.381 372.266,245.044 372.811,237.000 374.407 C 224.440 376.898,197.111 377.992,186.400 376.433 C 184.970 376.225,182.118 375.825,180.063 375.544 C 178.007 375.263,176.084 374.846,175.790 374.617 C 175.351 374.276,175.202 366.825,174.969 333.732 L 174.685 293.265 172.843 292.594 C 149.125 283.962,129.005 266.227,118.396 244.600 C 117.424 242.620,116.370 240.685,116.053 240.300 C 115.251 239.327,71.327 239.204,70.955 240.174 C 70.743 240.725,72.791 247.462,73.605 248.895 C 73.822 249.277,74.000 249.828,74.000 250.120 C 74.000 250.412,74.450 251.583,75.000 252.723 C 75.550 253.863,76.000 254.943,76.000 255.123 C 76.000 255.466,76.352 256.229,79.356 262.400 C 82.725 269.318,89.752 280.971,92.382 284.000 C 93.051 284.770,93.599 285.507,93.599 285.639 C 93.600 285.770,93.975 286.310,94.434 286.839 C 94.893 287.367,95.658 288.320,96.134 288.955 C 102.962 298.064,116.849 310.736,128.202 318.217 C 132.433 321.005,141.244 326.000,141.930 326.000 C 143.078 326.000,143.200 327.940,143.194 346.074 C 143.187 367.531,143.433 366.328,139.400 364.596 C 138.740 364.312,137.211 363.657,136.002 363.140 C 129.860 360.512,117.539 354.177,113.200 351.415 C 97.339 341.320,86.532 332.413,75.600 320.427 C 73.730 318.377,72.008 316.497,71.773 316.250 C 70.619 315.034,64.219 306.897,62.713 304.729 C 59.063 299.478,58.074 298.025,57.939 297.718 C 57.862 297.543,56.972 296.140,55.961 294.600 C 53.062 290.185,45.915 276.622,43.841 271.600 C 43.432 270.610,42.865 269.260,42.581 268.600 C 39.401 261.207,35.219 247.866,33.429 239.400 C 33.057 237.640,32.596 235.480,32.405 234.600 C 28.659 217.372,28.297 188.793,31.609 171.800 C 32.999 164.667,33.747 161.217,34.656 157.743 C 35.224 155.574,35.772 153.350,35.874 152.800 C 35.976 152.250,36.214 151.440,36.402 151.000 C 36.589 150.560,37.041 149.210,37.406 148.000 C 38.296 145.050,39.961 140.365,40.425 139.505 C 40.631 139.123,40.800 138.611,40.800 138.366 C 40.800 138.121,41.049 137.354,41.353 136.660 C 41.656 135.967,42.180 134.770,42.516 134.000 C 54.597 106.326,68.889 86.638,91.000 67.216 C 101.707 57.811,119.902 46.278,132.000 41.228 C 133.210 40.723,135.010 39.961,136.000 39.533 C 138.928 38.269,139.333 38.105,140.800 37.580 C 141.570 37.305,142.740 36.849,143.400 36.566 C 145.048 35.859,151.762 33.631,154.200 32.981 C 155.300 32.688,157.910 31.982,160.000 31.412 C 164.062 30.305,164.814 30.134,171.000 28.902 C 176.423 27.823,179.570 27.291,183.599 26.772 C 185.469 26.532,187.074 26.259,187.166 26.167 C 187.258 26.075,188.385 26.000,189.671 26.000 L 192.008 26.000 191.904 43.900 M150.749 135.861 C 150.356 136.335,150.200 137.793,150.200 141.000 C 150.200 147.394,148.607 146.799,165.749 146.806 C 173.697 146.809,180.446 146.968,180.746 147.158 C 181.297 147.507,179.274 151.460,176.918 154.638 C 176.413 155.319,176.000 156.022,176.000 156.200 C 176.000 156.378,175.577 157.081,175.059 157.762 C 174.542 158.443,173.817 159.540,173.449 160.200 C 173.081 160.860,172.379 162.041,171.890 162.824 C 170.042 165.783,167.376 170.099,166.760 171.130 C 166.408 171.718,162.762 177.569,158.657 184.132 C 149.189 199.269,149.200 199.246,149.200 204.576 C 149.200 208.722,149.202 208.731,150.431 209.764 L 151.661 210.800 175.617 210.800 L 199.572 210.800 200.086 209.900 C 200.781 208.684,200.781 201.316,200.086 200.100 L 199.572 199.200 184.286 199.195 C 165.345 199.188,166.312 199.381,168.600 196.055 C 169.370 194.935,170.000 193.944,170.000 193.852 C 170.000 193.761,175.400 185.016,182.000 174.420 C 188.600 163.824,194.000 155.062,194.000 154.950 C 194.000 154.838,194.435 154.174,194.966 153.473 C 199.198 147.893,200.604 139.113,197.726 136.235 L 196.691 135.200 173.994 135.200 C 153.370 135.200,151.248 135.260,150.749 135.861 M228.500 185.996 L 227.200 186.788 227.200 223.000 L 227.200 259.212 228.500 260.004 C 230.430 261.181,239.570 261.181,241.500 260.004 L 242.800 259.212 242.800 223.000 L 242.800 186.788 241.500 185.996 C 239.570 184.819,230.430 184.819,228.500 185.996 " stroke="none" fill="#fbfbfb" fill-rule="evenodd"></path></g></svg>