<svg id="svg" version="1.1" xmlns="http://www.w3.org/2000/svg" xmlns:xlink="http://www.w3.org/1999/xlink" width="400" height="400" viewBox="0, 0, 400,400"><g id="svgg"><path id="path0" d="M193.600 104.000 C 193.600 104.225,192.478 104.400,191.033 104.400 C 188.369 104.400,187.075 104.675,187.384 105.174 C 187.483 105.334,186.537 105.505,185.282 105.555 C 184.027 105.604,182.940 105.815,182.867 106.022 C 182.793 106.230,182.043 106.400,181.199 106.400 C 179.377 106.400,178.319 106.746,178.626 107.242 C 178.748 107.439,177.952 107.600,176.857 107.600 C 175.762 107.600,174.807 107.774,174.733 107.987 C 174.660 108.200,174.020 108.418,173.310 108.472 C 172.601 108.525,171.932 108.801,171.823 109.084 C 171.714 109.368,171.270 109.600,170.836 109.600 C 170.402 109.600,169.936 109.780,169.800 110.000 C 169.664 110.220,169.036 110.400,168.405 110.400 C 167.774 110.400,166.987 110.670,166.657 111.000 C 166.327 111.330,165.774 111.600,165.429 111.600 C 165.083 111.600,164.800 111.780,164.800 112.000 C 164.800 112.220,164.260 112.400,163.600 112.400 C 162.800 112.400,162.400 112.600,162.400 113.000 C 162.400 113.419,161.978 113.600,161.000 113.600 C 160.230 113.600,159.600 113.780,159.600 114.000 C 159.600 114.220,159.330 114.400,159.000 114.400 C 158.670 114.400,158.400 114.670,158.400 115.000 C 158.400 115.373,158.022 115.600,157.400 115.600 C 156.850 115.600,156.400 115.780,156.400 116.000 C 156.400 116.220,156.040 116.400,155.600 116.400 C 155.156 116.400,154.800 116.667,154.800 117.000 C 154.800 117.338,154.442 117.600,153.982 117.600 C 153.532 117.600,152.714 118.050,152.164 118.600 C 151.614 119.150,150.812 119.600,150.382 119.600 C 149.952 119.600,149.600 119.780,149.600 120.000 C 149.600 120.220,149.319 120.400,148.976 120.400 C 148.633 120.400,148.461 120.575,148.593 120.788 C 148.724 121.001,148.192 121.443,147.411 121.770 C 146.629 122.097,145.882 122.642,145.752 122.982 C 145.621 123.322,145.182 123.600,144.776 123.600 C 144.371 123.600,143.427 124.230,142.679 125.000 C 141.931 125.770,141.112 126.400,140.860 126.400 C 140.607 126.400,140.445 126.560,140.500 126.756 C 140.611 127.151,138.871 128.800,138.344 128.800 C 137.848 128.800,131.600 135.167,131.600 135.673 C 131.600 135.912,131.150 136.525,130.600 137.035 C 130.050 137.545,129.600 138.150,129.600 138.381 C 129.600 138.611,129.442 138.755,129.249 138.700 C 128.783 138.567,126.415 141.255,126.406 141.927 C 126.403 142.217,125.770 143.048,125.000 143.774 C 124.230 144.500,123.600 145.478,123.600 145.947 C 123.600 146.416,123.375 146.755,123.100 146.700 C 122.825 146.645,122.645 146.825,122.700 147.100 C 122.755 147.375,122.530 147.600,122.200 147.600 C 121.834 147.600,121.600 147.973,121.600 148.557 C 121.600 149.084,121.330 149.618,121.000 149.745 C 120.670 149.871,120.400 150.326,120.400 150.754 C 120.400 151.183,120.212 151.596,119.982 151.673 C 119.752 151.749,119.535 152.202,119.499 152.678 C 119.463 153.155,119.293 153.457,119.121 153.351 C 118.948 153.244,118.491 153.842,118.104 154.679 C 117.717 155.515,117.162 156.387,116.872 156.615 C 116.581 156.844,116.394 157.204,116.457 157.415 C 116.519 157.627,116.350 158.195,116.082 158.679 C 115.814 159.162,115.558 160.004,115.512 160.550 C 115.467 161.097,115.268 161.511,115.070 161.472 C 114.872 161.432,114.635 161.850,114.543 162.400 C 114.452 162.950,114.202 163.460,113.988 163.533 C 113.775 163.607,113.600 164.025,113.600 164.462 C 113.600 166.382,113.705 166.372,93.539 166.489 C 78.648 166.576,74.621 166.707,74.700 167.100 C 74.772 167.458,74.076 167.600,72.249 167.600 C 68.843 167.600,69.046 167.277,67.461 175.200 C 64.629 189.354,64.432 210.890,67.005 225.000 C 68.018 230.555,68.322 232.010,69.009 234.600 C 69.360 235.920,69.749 237.450,69.875 238.000 C 70.456 240.534,69.171 240.400,92.819 240.400 C 111.944 240.400,114.341 240.469,114.554 241.025 C 114.686 241.369,114.976 241.539,115.197 241.402 C 115.419 241.265,115.600 241.487,115.600 241.896 C 115.600 242.305,115.792 242.832,116.028 243.068 C 116.402 243.442,116.668 244.251,116.769 245.324 C 116.786 245.502,116.980 245.536,117.200 245.400 C 117.420 245.264,117.600 245.487,117.600 245.896 C 117.600 246.305,117.804 246.844,118.053 247.093 C 118.303 247.343,118.535 247.964,118.570 248.473 C 118.604 248.983,118.850 249.355,119.116 249.300 C 119.382 249.245,119.600 249.577,119.600 250.037 C 119.600 250.866,120.937 252.930,121.263 252.604 C 121.356 252.510,121.462 252.829,121.498 253.311 C 121.535 253.794,121.752 254.251,121.982 254.327 C 122.212 254.404,122.400 254.722,122.400 255.033 C 122.400 255.345,122.621 255.555,122.891 255.500 C 123.160 255.445,123.447 255.834,123.527 256.365 C 123.685 257.410,124.485 258.400,125.171 258.400 C 125.407 258.400,125.602 258.805,125.604 259.300 C 125.607 259.873,126.333 260.844,127.604 261.972 C 128.702 262.947,129.600 263.989,129.600 264.288 C 129.600 264.893,139.723 275.200,140.316 275.200 C 140.523 275.200,141.738 276.190,143.018 277.400 C 144.297 278.610,145.683 279.600,146.096 279.600 C 146.509 279.600,146.736 279.780,146.600 280.000 C 146.464 280.220,146.552 280.400,146.795 280.400 C 147.039 280.400,147.655 280.850,148.165 281.400 C 148.675 281.950,149.367 282.400,149.703 282.400 C 150.039 282.400,150.418 282.670,150.545 283.000 C 150.671 283.330,151.141 283.600,151.587 283.600 C 152.034 283.600,152.400 283.780,152.400 284.000 C 152.400 284.220,152.651 284.400,152.957 284.400 C 153.264 284.400,153.618 284.670,153.745 285.000 C 153.871 285.330,154.341 285.600,154.787 285.600 C 155.234 285.600,155.600 285.780,155.600 286.000 C 155.600 286.220,155.969 286.400,156.419 286.400 C 156.870 286.400,157.655 286.850,158.165 287.400 C 158.675 287.950,159.364 288.400,159.697 288.400 C 160.030 288.400,160.526 288.670,160.800 289.000 C 161.074 289.330,161.636 289.600,162.049 289.600 C 162.462 289.600,162.800 289.780,162.800 290.000 C 162.800 290.220,163.411 290.400,164.157 290.400 C 164.995 290.400,165.603 290.630,165.745 291.000 C 165.871 291.330,166.341 291.600,166.787 291.600 C 167.234 291.600,167.600 291.780,167.600 292.000 C 167.600 292.220,168.211 292.400,168.957 292.400 C 169.795 292.400,170.403 292.630,170.545 293.000 C 170.689 293.377,171.301 293.600,172.187 293.600 L 173.600 293.600 173.600 316.438 L 173.600 339.275 175.639 338.995 C 176.948 338.815,178.844 338.936,180.939 339.333 C 192.817 341.587,215.675 342.162,222.400 340.376 C 223.170 340.172,224.430 340.003,225.200 340.002 C 226.909 339.999,234.391 338.568,239.200 337.324 C 248.700 334.868,247.600 338.213,247.600 311.784 C 247.600 289.752,247.606 289.600,248.413 289.600 C 248.859 289.600,249.329 289.330,249.455 289.000 C 249.582 288.670,250.016 288.400,250.419 288.400 C 250.823 288.400,251.264 288.220,251.400 288.000 C 251.536 287.780,251.971 287.600,252.368 287.600 C 252.764 287.600,253.426 287.150,253.839 286.600 C 254.252 286.050,254.913 285.600,255.307 285.600 C 255.702 285.600,256.129 285.330,256.255 285.000 C 256.382 284.670,256.916 284.400,257.443 284.400 C 257.969 284.400,258.400 284.220,258.400 284.000 C 258.400 283.780,258.670 283.600,259.000 283.600 C 259.330 283.600,259.600 283.330,259.600 283.000 C 259.600 282.670,259.915 282.394,260.300 282.387 C 261.165 282.372,262.400 281.471,262.400 280.856 C 262.400 280.605,262.751 280.400,263.181 280.400 C 263.610 280.400,264.573 279.770,265.321 279.000 C 266.069 278.230,266.888 277.600,267.140 277.600 C 267.393 277.600,267.600 277.330,267.600 277.000 C 267.600 276.670,267.947 276.400,268.371 276.400 C 268.795 276.400,269.496 275.950,269.929 275.400 C 270.361 274.850,270.837 274.400,270.986 274.400 C 271.413 274.400,272.400 273.303,272.400 272.829 C 272.400 272.593,272.593 272.400,272.829 272.400 C 273.382 272.400,274.400 271.382,274.400 270.829 C 274.400 270.593,274.593 270.400,274.829 270.400 C 275.350 270.400,276.400 269.395,276.400 268.896 C 276.400 268.698,276.850 268.294,277.400 268.000 C 277.950 267.706,278.400 267.296,278.400 267.090 C 278.400 266.884,278.850 266.361,279.400 265.929 C 279.950 265.496,280.400 264.795,280.400 264.371 C 280.400 263.947,280.670 263.600,281.000 263.600 C 281.330 263.600,281.600 263.393,281.600 263.140 C 281.600 262.888,282.230 262.069,283.000 261.321 C 283.770 260.573,284.400 259.610,284.400 259.181 C 284.400 258.751,284.605 258.400,284.856 258.400 C 285.471 258.400,286.372 257.165,286.387 256.300 C 286.394 255.915,286.670 255.600,287.000 255.600 C 287.330 255.600,287.600 255.330,287.600 255.000 C 287.600 254.670,287.780 254.400,288.000 254.400 C 288.220 254.400,288.400 253.950,288.400 253.400 C 288.400 252.778,288.627 252.400,289.000 252.400 C 289.357 252.400,289.600 252.033,289.600 251.495 C 289.600 250.996,290.049 250.253,290.600 249.839 C 291.150 249.426,291.600 248.764,291.600 248.368 C 291.600 247.971,291.780 247.536,292.000 247.400 C 292.220 247.264,292.400 246.823,292.400 246.419 C 292.400 246.016,292.670 245.582,293.000 245.455 C 293.330 245.329,293.600 244.870,293.600 244.436 C 293.600 244.002,293.780 243.536,294.000 243.400 C 294.220 243.264,294.400 242.533,294.400 241.776 C 294.400 240.820,294.583 240.400,295.000 240.400 C 295.373 240.400,295.600 240.022,295.600 239.400 C 295.600 238.850,295.780 238.400,296.000 238.400 C 296.220 238.400,296.400 237.770,296.400 237.000 C 296.400 236.022,296.581 235.600,297.000 235.600 C 297.369 235.600,297.600 235.225,297.600 234.624 C 297.600 234.087,297.780 233.536,298.000 233.400 C 298.220 233.264,298.400 232.553,298.400 231.819 C 298.400 231.003,298.633 230.396,299.000 230.255 C 299.411 230.098,299.600 229.455,299.600 228.213 C 299.600 227.216,299.780 226.400,300.000 226.400 C 300.220 226.400,300.400 225.519,300.400 224.443 C 300.400 223.072,300.580 222.417,301.000 222.255 C 301.455 222.081,301.600 221.344,301.600 219.213 C 301.600 217.604,301.771 216.400,302.000 216.400 C 302.242 216.400,302.400 214.681,302.400 212.043 C 302.400 208.475,302.512 207.642,303.020 207.448 C 303.883 207.117,303.814 194.857,302.947 194.524 C 302.531 194.365,302.400 193.276,302.400 189.957 C 302.400 187.319,302.242 185.600,302.000 185.600 C 301.778 185.600,301.600 184.529,301.600 183.187 C 301.600 181.412,301.442 180.714,301.000 180.545 C 300.561 180.376,300.400 179.684,300.400 177.957 C 300.400 176.652,300.221 175.600,300.000 175.600 C 299.780 175.600,299.600 175.082,299.600 174.449 C 299.600 173.816,299.330 173.074,299.000 172.800 C 298.670 172.526,298.400 171.694,298.400 170.951 C 298.400 170.208,298.220 169.600,298.000 169.600 C 297.780 169.600,297.600 169.082,297.600 168.449 C 297.600 167.816,297.330 167.074,297.000 166.800 C 296.670 166.526,296.400 165.874,296.400 165.351 C 296.400 164.828,296.220 164.400,296.000 164.400 C 295.780 164.400,295.600 163.770,295.600 163.000 C 295.600 162.022,295.419 161.600,295.000 161.600 C 294.627 161.600,294.400 161.222,294.400 160.600 C 294.400 160.050,294.220 159.600,294.000 159.600 C 293.780 159.600,293.600 159.150,293.600 158.600 C 293.600 157.978,293.373 157.600,293.000 157.600 C 292.627 157.600,292.400 157.222,292.400 156.600 C 292.400 156.050,292.220 155.600,292.000 155.600 C 291.780 155.600,291.600 155.234,291.600 154.787 C 291.600 154.341,291.330 153.871,291.000 153.745 C 290.670 153.618,290.400 153.084,290.400 152.557 C 290.400 152.031,290.220 151.600,290.000 151.600 C 289.780 151.600,289.600 151.330,289.600 151.000 C 289.600 150.670,289.330 150.400,289.000 150.400 C 288.660 150.400,288.400 150.041,288.400 149.571 C 288.400 148.686,287.534 147.600,286.829 147.600 C 286.593 147.600,286.400 147.150,286.400 146.600 C 286.400 146.050,286.220 145.600,286.000 145.600 C 285.780 145.600,285.600 145.330,285.600 145.000 C 285.600 144.670,285.330 144.400,285.000 144.400 C 284.670 144.400,284.394 144.085,284.387 143.700 C 284.372 142.835,283.471 141.600,282.856 141.600 C 282.605 141.600,282.400 141.330,282.400 141.000 C 282.400 140.670,282.220 140.400,282.000 140.400 C 281.780 140.400,281.600 140.065,281.600 139.656 C 281.600 139.247,281.150 138.574,280.600 138.161 C 280.050 137.748,279.600 137.183,279.600 136.905 C 279.600 136.627,279.407 136.400,279.171 136.400 C 278.618 136.400,277.600 135.382,277.600 134.829 C 277.600 134.593,277.423 134.400,277.207 134.400 C 276.695 134.400,271.600 129.305,271.600 128.793 C 271.600 128.577,271.407 128.400,271.171 128.400 C 270.618 128.400,269.600 127.382,269.600 126.829 C 269.600 126.593,269.330 126.400,269.000 126.400 C 268.670 126.400,268.400 126.220,268.400 126.000 C 268.400 125.780,267.950 125.600,267.400 125.600 C 266.850 125.600,266.400 125.407,266.400 125.171 C 266.400 124.618,265.382 123.600,264.829 123.600 C 264.593 123.600,264.400 123.395,264.400 123.144 C 264.400 122.529,263.165 121.628,262.300 121.613 C 261.915 121.606,261.600 121.330,261.600 121.000 C 261.600 120.670,261.330 120.400,261.000 120.400 C 260.670 120.400,260.400 120.220,260.400 120.000 C 260.400 119.780,259.950 119.600,259.400 119.600 C 258.850 119.600,258.400 119.407,258.400 119.171 C 258.400 118.466,257.314 117.600,256.429 117.600 C 255.959 117.600,255.600 117.340,255.600 117.000 C 255.600 116.627,255.222 116.400,254.600 116.400 C 254.050 116.400,253.600 116.220,253.600 116.000 C 253.600 115.780,253.169 115.600,252.643 115.600 C 252.116 115.600,251.582 115.330,251.455 115.000 C 251.329 114.670,250.859 114.400,250.413 114.400 C 249.966 114.400,249.600 114.220,249.600 114.000 C 249.600 113.780,249.169 113.600,248.643 113.600 C 248.116 113.600,247.582 113.330,247.455 113.000 C 247.329 112.670,246.859 112.400,246.413 112.400 C 245.966 112.400,245.600 112.220,245.600 112.000 C 245.600 111.780,245.150 111.600,244.600 111.600 C 243.978 111.600,243.600 111.373,243.600 111.000 C 243.600 110.631,243.225 110.400,242.624 110.400 C 242.087 110.400,241.536 110.220,241.400 110.000 C 241.264 109.780,240.553 109.600,239.819 109.600 C 239.003 109.600,238.396 109.367,238.255 109.000 C 238.122 108.653,237.524 108.400,236.836 108.400 C 236.182 108.400,235.536 108.220,235.400 108.000 C 235.264 107.780,234.553 107.600,233.819 107.600 C 233.003 107.600,232.396 107.367,232.255 107.000 C 232.098 106.589,231.455 106.400,230.213 106.400 C 229.216 106.400,228.400 106.220,228.400 106.000 C 228.400 105.779,227.350 105.600,226.049 105.600 C 224.447 105.600,223.539 105.409,223.200 105.000 C 222.826 104.549,221.820 104.400,219.151 104.400 C 217.050 104.400,215.600 104.237,215.600 104.000 C 215.600 103.743,211.667 103.600,204.600 103.600 C 197.533 103.600,193.600 103.743,193.600 104.000 M208.600 114.000 C 208.736 114.220,209.385 114.400,210.043 114.400 C 210.804 114.400,211.575 114.763,212.165 115.400 C 212.675 115.950,213.296 116.400,213.546 116.400 C 213.796 116.400,214.705 117.105,215.567 117.967 C 216.428 118.828,217.238 119.428,217.367 119.300 C 217.495 119.172,217.600 119.536,217.600 120.110 C 217.600 120.683,217.780 121.264,218.000 121.400 C 218.220 121.536,218.400 121.986,218.400 122.400 C 218.400 122.814,218.608 123.281,218.862 123.438 C 219.167 123.627,219.214 123.546,219.000 123.200 C 218.786 122.854,218.833 122.773,219.138 122.962 C 219.911 123.439,219.775 134.042,219.000 133.745 C 218.564 133.577,218.400 133.791,218.400 134.524 C 218.400 135.079,218.212 135.596,217.982 135.673 C 217.752 135.749,217.535 136.202,217.499 136.678 C 217.463 137.155,217.323 137.476,217.188 137.393 C 216.882 137.204,215.600 138.667,215.600 139.205 C 215.600 139.422,215.349 139.600,215.043 139.600 C 214.736 139.600,214.378 139.881,214.246 140.225 C 214.114 140.569,213.851 140.755,213.661 140.638 C 213.471 140.521,212.899 140.869,212.388 141.412 C 211.878 141.956,211.057 142.400,210.563 142.400 C 209.315 142.400,208.362 142.815,208.626 143.242 C 208.749 143.441,207.419 143.600,205.624 143.600 C 203.025 143.600,202.400 143.484,202.400 143.000 C 202.400 142.581,201.978 142.400,201.000 142.400 C 200.230 142.400,199.600 142.220,199.600 142.000 C 199.600 141.780,199.330 141.600,199.000 141.600 C 198.670 141.600,198.400 141.330,198.400 141.000 C 198.400 140.660,198.041 140.400,197.571 140.400 C 196.686 140.400,195.600 139.534,195.600 138.829 C 195.600 138.593,195.407 138.400,195.171 138.400 C 194.529 138.400,193.600 137.345,193.600 136.616 C 193.600 136.263,193.330 135.871,193.000 135.745 C 192.670 135.618,192.400 135.084,192.400 134.557 C 192.400 134.031,192.220 133.600,192.000 133.600 C 191.780 133.600,191.600 132.784,191.600 131.787 C 191.600 130.545,191.411 129.902,191.000 129.745 C 190.670 129.618,190.400 129.106,190.400 128.606 C 190.400 128.107,190.670 127.474,191.000 127.200 C 191.345 126.914,191.600 126.042,191.600 125.151 C 191.600 124.298,191.780 123.600,192.000 123.600 C 192.220 123.600,192.400 123.150,192.400 122.600 C 192.400 121.978,192.627 121.600,193.000 121.600 C 193.330 121.600,193.600 121.330,193.600 121.000 C 193.600 120.670,193.780 120.400,194.000 120.400 C 194.220 120.400,194.400 119.950,194.400 119.400 C 194.400 118.850,194.593 118.400,194.829 118.400 C 195.382 118.400,196.400 117.382,196.400 116.829 C 196.400 116.593,196.850 116.400,197.400 116.400 C 197.950 116.400,198.400 116.220,198.400 116.000 C 198.400 115.780,198.766 115.600,199.213 115.600 C 199.659 115.600,200.129 115.330,200.255 115.000 C 200.382 114.670,200.916 114.400,201.443 114.400 C 201.969 114.400,202.400 114.220,202.400 114.000 C 202.400 113.769,203.659 113.600,205.376 113.600 C 207.013 113.600,208.464 113.780,208.600 114.000 M210.545 151.000 C 210.671 151.330,211.231 151.600,211.787 151.600 C 212.344 151.600,212.800 151.780,212.800 152.000 C 212.800 152.220,213.141 152.400,213.557 152.400 C 213.974 152.400,214.418 152.670,214.545 153.000 C 214.671 153.330,215.141 153.600,215.587 153.600 C 216.034 153.600,216.400 153.780,216.400 154.000 C 216.400 154.220,216.670 154.400,217.000 154.400 C 217.330 154.400,217.600 154.593,217.600 154.829 C 217.600 155.382,218.618 156.400,219.171 156.400 C 219.407 156.400,219.600 156.831,219.600 157.357 C 219.600 157.884,219.881 158.422,220.225 158.554 C 220.569 158.686,220.736 158.980,220.596 159.207 C 220.455 159.434,220.579 159.570,220.870 159.510 C 221.212 159.439,221.447 159.897,221.533 160.797 C 221.605 161.565,221.851 162.308,222.079 162.449 C 222.709 162.838,222.699 274.500,222.069 274.710 C 221.811 274.796,221.600 275.192,221.600 275.591 C 221.600 275.989,221.318 276.422,220.974 276.554 C 220.630 276.687,220.404 277.119,220.471 277.516 C 220.598 278.263,215.648 283.600,214.829 283.600 C 214.593 283.600,214.400 283.767,214.400 283.972 C 214.400 284.177,213.995 284.406,213.500 284.482 C 213.005 284.557,212.645 284.840,212.700 285.109 C 212.766 285.432,212.251 285.600,211.200 285.600 C 210.320 285.600,209.600 285.780,209.600 286.000 C 209.600 286.237,208.133 286.400,206.000 286.400 C 203.867 286.400,202.400 286.237,202.400 286.000 C 202.400 285.780,201.770 285.600,201.000 285.600 C 200.022 285.600,199.600 285.419,199.600 285.000 C 199.600 284.627,199.222 284.400,198.600 284.400 C 198.050 284.400,197.600 284.220,197.600 284.000 C 197.600 283.780,197.427 283.600,197.215 283.600 C 196.759 283.600,193.600 280.383,193.600 279.919 C 193.600 279.744,193.330 279.600,193.000 279.600 C 192.670 279.600,192.400 279.330,192.400 279.000 C 192.400 278.670,192.220 278.400,192.000 278.400 C 191.780 278.400,191.600 278.152,191.600 277.849 C 191.600 277.546,191.330 277.074,191.000 276.800 C 190.670 276.526,190.400 275.874,190.400 275.351 C 190.400 274.828,190.220 274.400,190.000 274.400 C 189.780 274.400,189.600 273.770,189.600 273.000 C 189.600 272.022,189.419 271.600,189.000 271.600 C 188.249 271.600,188.069 179.777,188.820 179.527 C 189.085 179.438,189.319 176.309,189.455 170.993 C 189.574 166.377,189.835 162.540,190.036 162.467 C 190.236 162.393,190.400 161.918,190.400 161.409 C 190.400 160.901,190.670 160.382,191.000 160.255 C 191.330 160.129,191.600 159.702,191.600 159.307 C 191.600 158.913,192.050 158.252,192.600 157.839 C 193.150 157.426,193.600 156.753,193.600 156.344 C 193.600 155.935,193.780 155.600,194.000 155.600 C 194.220 155.600,194.400 155.330,194.400 155.000 C 194.400 154.657,194.760 154.400,195.242 154.400 C 195.706 154.400,196.439 153.950,196.871 153.400 C 197.304 152.850,197.994 152.400,198.405 152.400 C 198.816 152.400,199.264 152.220,199.400 152.000 C 199.536 151.780,200.002 151.600,200.436 151.600 C 200.870 151.600,201.329 151.330,201.455 151.000 C 201.640 150.518,202.534 150.400,206.000 150.400 C 209.466 150.400,210.360 150.518,210.545 151.000 " stroke="none" fill="#64646b" fill-rule="evenodd"></path><path id="path1" d="M189.216 24.981 C 188.819 25.459,187.851 25.600,184.975 25.600 C 182.921 25.600,181.136 25.780,181.000 26.000 C 180.864 26.220,179.448 26.400,177.853 26.400 C 175.922 26.400,174.693 26.596,174.176 26.987 C 173.732 27.323,172.511 27.580,171.324 27.587 C 170.182 27.594,169.136 27.780,169.000 28.000 C 168.864 28.220,167.898 28.400,166.853 28.400 C 165.802 28.400,164.606 28.662,164.176 28.987 C 163.749 29.310,162.736 29.580,161.924 29.587 C 161.112 29.594,160.336 29.780,160.200 30.000 C 160.064 30.220,159.355 30.400,158.625 30.400 C 157.895 30.400,157.074 30.670,156.800 31.000 C 156.516 31.342,155.644 31.600,154.775 31.600 C 153.935 31.600,153.136 31.780,153.000 32.000 C 152.864 32.220,152.243 32.400,151.619 32.400 C 150.981 32.400,150.385 32.662,150.255 33.000 C 150.103 33.396,149.477 33.600,148.413 33.600 C 147.526 33.600,146.800 33.780,146.800 34.000 C 146.800 34.220,146.279 34.400,145.643 34.400 C 144.983 34.400,144.387 34.658,144.255 35.000 C 144.112 35.374,143.502 35.600,142.636 35.600 C 141.872 35.600,141.136 35.780,141.000 36.000 C 140.864 36.220,140.386 36.400,139.938 36.400 C 139.490 36.400,138.646 36.658,138.062 36.974 C 137.478 37.290,136.235 37.864,135.300 38.251 C 134.365 38.638,133.600 39.099,133.600 39.277 C 133.600 39.455,133.148 39.600,132.595 39.600 C 131.593 39.600,130.390 40.131,129.145 41.121 C 128.784 41.408,128.122 41.671,127.672 41.705 C 127.223 41.738,126.944 41.909,127.051 42.083 C 127.159 42.257,126.809 42.400,126.273 42.400 C 125.737 42.400,125.074 42.670,124.800 43.000 C 124.526 43.330,123.964 43.600,123.551 43.600 C 123.138 43.600,122.800 43.760,122.800 43.957 C 122.800 44.153,122.350 44.426,121.800 44.564 C 121.250 44.702,120.800 44.992,120.800 45.208 C 120.800 45.423,120.558 45.600,120.261 45.600 C 119.574 45.600,117.288 46.733,116.984 47.225 C 116.857 47.431,116.447 47.600,116.072 47.600 C 115.698 47.600,114.944 48.012,114.396 48.515 C 113.848 49.018,112.568 49.818,111.550 50.293 C 110.533 50.768,109.445 51.392,109.133 51.679 C 108.320 52.426,107.111 53.186,106.300 53.458 C 105.915 53.588,105.600 53.811,105.600 53.956 C 105.600 54.100,104.970 54.557,104.200 54.972 C 103.430 55.387,102.800 55.878,102.800 56.063 C 102.800 56.248,102.587 56.400,102.326 56.400 C 102.065 56.400,100.998 57.120,99.954 58.000 C 98.910 58.880,97.868 59.600,97.637 59.600 C 97.407 59.600,96.924 60.050,96.563 60.600 C 96.203 61.150,95.724 61.600,95.500 61.600 C 95.275 61.600,94.675 62.050,94.165 62.600 C 93.655 63.150,93.054 63.600,92.828 63.600 C 92.603 63.600,92.124 64.050,91.763 64.600 C 91.403 65.150,90.904 65.601,90.654 65.603 C 90.404 65.605,89.241 66.505,88.069 67.603 C 86.897 68.701,85.819 69.600,85.674 69.600 C 85.322 69.600,73.600 81.313,73.600 81.664 C 73.600 81.814,72.701 82.897,71.603 84.069 C 70.505 85.241,69.605 86.404,69.603 86.654 C 69.601 86.904,69.150 87.403,68.600 87.763 C 68.050 88.124,67.600 88.613,67.600 88.852 C 67.600 89.090,67.150 89.639,66.600 90.071 C 66.050 90.504,65.600 91.094,65.600 91.383 C 65.600 91.672,65.150 92.203,64.600 92.563 C 64.050 92.924,63.600 93.484,63.600 93.809 C 63.600 94.134,63.447 94.400,63.261 94.400 C 63.074 94.400,61.859 95.975,60.561 97.900 C 59.262 99.825,58.065 101.460,57.900 101.533 C 57.735 101.607,57.600 102.003,57.600 102.413 C 57.600 102.824,57.357 103.304,57.061 103.480 C 56.764 103.656,55.999 104.610,55.361 105.600 C 54.722 106.590,54.065 107.460,53.900 107.533 C 53.735 107.607,53.600 107.900,53.600 108.184 C 53.600 108.469,53.330 108.926,53.000 109.200 C 52.670 109.474,52.400 109.967,52.400 110.295 C 52.400 110.624,51.770 111.751,51.000 112.800 C 50.230 113.849,49.600 114.822,49.600 114.962 C 49.600 115.101,49.135 115.952,48.567 116.852 C 47.999 117.751,47.737 118.363,47.984 118.210 C 48.231 118.057,47.796 118.929,47.017 120.147 C 46.238 121.365,45.600 122.721,45.600 123.161 C 45.600 123.601,45.375 124.104,45.100 124.280 C 44.825 124.456,44.362 125.024,44.070 125.542 C 43.658 126.276,43.653 126.414,44.049 126.170 C 44.329 125.997,44.190 126.383,43.742 127.028 C 42.589 128.684,41.600 130.802,41.600 131.612 C 41.600 131.992,41.330 132.526,41.000 132.800 C 40.670 133.074,40.400 133.625,40.400 134.025 C 40.400 134.425,40.220 134.864,40.000 135.000 C 39.780 135.136,39.600 135.877,39.600 136.647 C 39.600 137.604,39.454 137.957,39.138 137.762 C 38.838 137.576,38.786 137.653,38.989 137.983 C 39.162 138.262,39.144 138.604,38.951 138.745 C 38.325 139.200,37.600 140.767,37.587 141.695 C 37.580 142.193,37.310 142.949,36.987 143.376 C 36.664 143.804,36.400 144.558,36.400 145.053 C 36.400 145.548,36.220 146.064,36.000 146.200 C 35.780 146.336,35.594 146.932,35.587 147.524 C 35.580 148.116,35.310 148.949,34.987 149.376 C 34.664 149.804,34.400 150.849,34.400 151.700 C 34.400 152.551,34.257 153.159,34.083 153.051 C 33.909 152.944,33.727 153.365,33.680 153.988 C 33.632 154.612,33.326 155.634,32.999 156.261 C 32.672 156.887,32.404 157.974,32.402 158.676 C 32.401 159.378,32.220 160.064,32.000 160.200 C 31.780 160.336,31.600 161.349,31.600 162.452 C 31.600 163.701,31.374 164.683,31.000 165.057 C 30.616 165.441,30.400 166.429,30.400 167.805 C 30.400 168.986,30.220 170.064,30.000 170.200 C 29.780 170.336,29.600 171.862,29.600 173.590 C 29.600 175.749,29.443 176.785,29.100 176.900 C 28.755 177.014,28.557 178.358,28.462 181.233 C 28.386 183.525,28.174 185.583,27.990 185.807 C 27.500 186.405,27.510 216.697,28.001 217.001 C 28.221 217.136,28.400 218.732,28.400 220.547 C 28.400 222.829,28.581 224.087,28.987 224.624 C 29.382 225.146,29.579 226.408,29.587 228.476 C 29.594 230.168,29.780 231.664,30.000 231.800 C 30.220 231.936,30.400 232.902,30.400 233.947 C 30.400 234.998,30.662 236.194,30.987 236.624 C 31.323 237.068,31.580 238.289,31.587 239.476 C 31.594 240.618,31.780 241.664,32.000 241.800 C 32.220 241.936,32.400 242.722,32.400 243.547 C 32.400 244.372,32.664 245.396,32.987 245.824 C 33.310 246.251,33.580 247.185,33.587 247.900 C 33.594 248.615,33.780 249.200,34.000 249.200 C 34.220 249.200,34.400 249.796,34.400 250.524 C 34.400 251.251,34.664 252.196,34.987 252.624 C 35.310 253.051,35.580 253.884,35.587 254.476 C 35.594 255.068,35.780 255.664,36.000 255.800 C 36.220 255.936,36.400 256.555,36.400 257.175 C 36.400 257.795,36.670 258.526,37.000 258.800 C 37.330 259.074,37.600 259.805,37.600 260.425 C 37.600 261.045,37.780 261.664,38.000 261.800 C 38.220 261.936,38.400 262.414,38.400 262.862 C 38.400 263.310,38.696 264.244,39.057 264.938 C 40.267 267.262,40.400 267.586,40.400 268.218 C 40.400 268.563,40.850 269.652,41.400 270.637 C 41.950 271.622,42.400 272.673,42.400 272.971 C 42.400 273.270,42.670 273.618,43.000 273.745 C 43.351 273.879,43.600 274.479,43.600 275.187 C 43.600 275.854,43.780 276.400,44.000 276.400 C 44.220 276.400,44.400 276.766,44.400 277.213 C 44.400 277.659,44.670 278.129,45.000 278.255 C 45.330 278.382,45.600 278.916,45.600 279.443 C 45.600 279.969,45.780 280.400,46.000 280.400 C 46.220 280.400,46.400 280.766,46.400 281.213 C 46.400 281.659,46.670 282.129,47.000 282.255 C 47.330 282.382,47.600 282.916,47.600 283.443 C 47.600 283.969,47.780 284.400,48.000 284.400 C 48.220 284.400,48.400 284.751,48.400 285.180 C 48.400 285.609,48.625 286.104,48.900 286.280 C 49.639 286.753,50.756 288.248,50.055 287.825 C 49.593 287.547,50.573 289.324,52.701 292.623 C 52.976 293.051,53.374 293.798,53.585 294.284 C 53.796 294.770,54.290 295.498,54.684 295.901 C 55.958 297.206,56.660 298.190,56.059 297.828 C 55.701 297.613,55.751 297.859,56.205 298.551 C 56.583 299.128,57.051 299.600,57.246 299.600 C 57.441 299.600,57.600 299.844,57.600 300.142 C 57.600 300.439,58.005 301.126,58.500 301.666 C 60.236 303.563,60.680 304.199,60.000 303.815 C 59.670 303.629,59.895 304.009,60.500 304.660 C 61.105 305.311,61.600 306.055,61.600 306.313 C 61.600 306.571,62.050 307.076,62.600 307.437 C 63.150 307.797,63.600 308.305,63.600 308.566 C 63.600 309.082,67.160 313.660,68.666 315.081 C 69.180 315.565,69.600 316.142,69.600 316.362 C 69.600 316.582,70.320 317.341,71.200 318.048 C 72.080 318.755,72.800 319.501,72.800 319.706 C 72.800 320.207,84.982 332.400,85.482 332.400 C 86.021 332.400,87.250 333.801,87.001 334.132 C 86.890 334.280,86.905 334.325,87.033 334.233 C 87.282 334.056,87.852 334.513,90.361 336.900 C 91.228 337.725,92.049 338.400,92.186 338.400 C 92.323 338.400,92.920 338.850,93.513 339.400 C 94.107 339.950,94.714 340.400,94.862 340.400 C 95.011 340.400,95.905 341.120,96.849 342.000 C 97.792 342.880,98.798 343.600,99.082 343.600 C 99.367 343.600,99.600 343.780,99.600 344.000 C 99.600 344.220,99.788 344.400,100.017 344.400 C 100.247 344.400,100.920 344.850,101.513 345.400 C 102.107 345.950,102.719 346.400,102.875 346.400 C 103.031 346.400,103.644 346.850,104.238 347.400 C 104.831 347.950,105.483 348.400,105.685 348.400 C 105.888 348.400,106.643 348.850,107.364 349.400 C 108.086 349.950,108.864 350.400,109.095 350.400 C 109.326 350.400,109.618 350.670,109.745 351.000 C 109.871 351.330,110.341 351.600,110.787 351.600 C 111.234 351.600,111.600 351.780,111.600 352.000 C 111.600 352.220,111.870 352.400,112.200 352.400 C 112.530 352.400,112.801 352.535,112.803 352.700 C 112.806 353.102,115.119 354.400,115.832 354.400 C 116.145 354.400,116.400 354.567,116.400 354.771 C 116.400 355.192,118.655 356.400,119.442 356.400 C 119.727 356.400,120.104 356.639,120.280 356.930 C 120.622 357.498,121.702 358.028,123.000 358.268 C 123.440 358.349,123.980 358.648,124.200 358.932 C 124.641 359.503,125.769 360.041,127.000 360.268 C 127.440 360.349,127.984 360.637,128.208 360.907 C 128.875 361.713,130.323 362.400,131.352 362.400 C 131.881 362.400,132.418 362.670,132.545 363.000 C 132.671 363.330,133.130 363.600,133.564 363.600 C 133.998 363.600,134.464 363.780,134.600 364.000 C 134.736 364.220,135.209 364.400,135.652 364.400 C 136.095 364.400,136.727 364.670,137.057 365.000 C 137.387 365.330,138.094 365.600,138.629 365.600 C 139.163 365.600,139.600 365.780,139.600 366.000 C 139.600 366.222,140.667 366.400,142.000 366.400 L 144.400 366.400 144.400 346.000 L 144.400 325.600 143.400 325.600 C 142.778 325.600,142.400 325.373,142.400 325.000 C 142.400 324.627,142.022 324.400,141.400 324.400 C 140.850 324.400,140.400 324.220,140.400 324.000 C 140.400 323.780,139.950 323.600,139.400 323.600 C 138.778 323.600,138.400 323.373,138.400 323.000 C 138.400 322.627,138.022 322.400,137.400 322.400 C 136.850 322.400,136.400 322.220,136.400 322.000 C 136.400 321.780,135.950 321.600,135.400 321.600 C 134.850 321.600,134.400 321.407,134.400 321.171 C 134.400 320.466,133.314 319.600,132.429 319.600 C 131.959 319.600,131.600 319.340,131.600 319.000 C 131.600 318.670,131.330 318.400,131.000 318.400 C 130.670 318.400,130.400 318.220,130.400 318.000 C 130.400 317.780,129.950 317.600,129.400 317.600 C 128.850 317.600,128.400 317.395,128.400 317.144 C 128.400 316.529,127.165 315.628,126.300 315.613 C 125.915 315.606,125.600 315.330,125.600 315.000 C 125.600 314.670,125.330 314.400,125.000 314.400 C 124.670 314.400,124.400 314.220,124.400 314.000 C 124.400 313.780,123.950 313.600,123.400 313.600 C 122.850 313.600,122.400 313.407,122.400 313.171 C 122.400 312.618,121.382 311.600,120.829 311.600 C 120.593 311.600,120.400 311.330,120.400 311.000 C 120.400 310.660,120.041 310.400,119.571 310.400 C 118.686 310.400,117.600 309.534,117.600 308.829 C 117.600 308.593,117.408 308.400,117.173 308.400 C 116.938 308.400,116.152 307.770,115.426 307.000 C 114.700 306.230,113.722 305.600,113.253 305.600 C 112.784 305.600,112.400 305.407,112.400 305.171 C 112.400 304.618,111.382 303.600,110.829 303.600 C 110.593 303.600,110.400 303.407,110.400 303.171 C 110.400 302.618,109.382 301.600,108.829 301.600 C 108.593 301.600,108.400 301.407,108.400 301.171 C 108.400 300.618,107.382 299.600,106.829 299.600 C 106.593 299.600,106.400 299.407,106.400 299.171 C 106.400 298.618,105.382 297.600,104.829 297.600 C 104.593 297.600,104.400 297.407,104.400 297.171 C 104.400 296.618,103.382 295.600,102.829 295.600 C 102.593 295.600,102.400 295.216,102.400 294.747 C 102.400 294.278,101.770 293.300,101.000 292.574 C 100.230 291.848,99.600 291.062,99.600 290.827 C 99.600 290.592,99.407 290.400,99.171 290.400 C 98.618 290.400,97.600 289.382,97.600 288.829 C 97.600 288.593,97.330 288.400,97.000 288.400 C 96.660 288.400,96.400 288.041,96.400 287.571 C 96.400 286.686,95.534 285.600,94.829 285.600 C 94.593 285.600,94.400 285.330,94.400 285.000 C 94.400 284.670,94.220 284.400,94.000 284.400 C 93.780 284.400,93.600 284.065,93.600 283.656 C 93.600 283.247,93.150 282.574,92.600 282.161 C 92.050 281.748,91.600 281.087,91.600 280.693 C 91.600 280.298,91.330 279.871,91.000 279.745 C 90.670 279.618,90.400 279.264,90.400 278.957 C 90.400 278.651,90.220 278.400,90.000 278.400 C 89.780 278.400,89.600 278.065,89.600 277.656 C 89.600 277.247,89.150 276.574,88.600 276.161 C 88.049 275.747,87.600 275.004,87.600 274.505 C 87.600 273.967,87.357 273.600,87.000 273.600 C 86.670 273.600,86.400 273.330,86.400 273.000 C 86.400 272.670,86.220 272.400,86.000 272.400 C 85.780 272.400,85.600 271.950,85.600 271.400 C 85.600 270.778,85.373 270.400,85.000 270.400 C 84.627 270.400,84.400 270.022,84.400 269.400 C 84.400 268.850,84.220 268.400,84.000 268.400 C 83.780 268.400,83.600 268.065,83.600 267.656 C 83.600 267.247,83.150 266.574,82.600 266.161 C 82.049 265.747,81.600 265.004,81.600 264.505 C 81.600 263.967,81.357 263.600,81.000 263.600 C 80.627 263.600,80.400 263.222,80.400 262.600 C 80.400 262.050,80.220 261.600,80.000 261.600 C 79.780 261.600,79.600 260.964,79.600 260.187 C 79.600 259.301,79.377 258.689,79.000 258.545 C 78.670 258.418,78.400 257.884,78.400 257.357 C 78.400 256.831,78.220 256.400,78.000 256.400 C 77.780 256.400,77.600 256.034,77.600 255.587 C 77.600 255.141,77.330 254.671,77.000 254.545 C 76.630 254.403,76.400 253.795,76.400 252.957 C 76.400 252.211,76.220 251.600,76.000 251.600 C 75.780 251.600,75.600 251.150,75.600 250.600 C 75.600 249.978,75.373 249.600,75.000 249.600 C 74.567 249.600,74.400 249.156,74.400 248.000 C 74.400 247.120,74.220 246.400,74.000 246.400 C 73.780 246.400,73.600 245.770,73.600 245.000 C 73.600 244.022,73.419 243.600,73.000 243.600 C 72.567 243.600,72.400 243.156,72.400 242.000 C 72.400 240.926,72.223 240.400,71.862 240.400 C 71.133 240.400,70.155 239.219,69.875 238.000 C 69.749 237.450,69.360 235.920,69.009 234.600 C 64.567 217.864,63.916 192.841,67.464 175.200 C 68.721 168.952,68.902 168.343,69.646 167.878 C 70.061 167.619,70.400 167.020,70.400 166.547 C 70.400 166.073,70.670 165.582,71.000 165.455 C 71.377 165.311,71.600 164.699,71.600 163.813 C 71.600 163.036,71.780 162.400,72.000 162.400 C 72.220 162.400,72.400 161.789,72.400 161.043 C 72.400 160.205,72.630 159.597,73.000 159.455 C 73.377 159.311,73.600 158.699,73.600 157.813 C 73.600 157.036,73.780 156.400,74.000 156.400 C 74.220 156.400,74.400 155.789,74.400 155.043 C 74.400 154.205,74.630 153.597,75.000 153.455 C 75.377 153.311,75.600 152.699,75.600 151.813 C 75.600 151.036,75.780 150.400,76.000 150.400 C 76.220 150.400,76.400 149.969,76.400 149.443 C 76.400 148.916,76.670 148.382,77.000 148.255 C 77.330 148.129,77.600 147.659,77.600 147.213 C 77.600 146.766,77.780 146.400,78.000 146.400 C 78.220 146.400,78.400 145.789,78.400 145.043 C 78.400 144.205,78.630 143.597,79.000 143.455 C 79.330 143.329,79.600 142.859,79.600 142.413 C 79.600 141.966,79.780 141.600,80.000 141.600 C 80.220 141.600,80.400 141.169,80.400 140.643 C 80.400 140.116,80.670 139.582,81.000 139.455 C 81.330 139.329,81.600 138.859,81.600 138.413 C 81.600 137.966,81.780 137.600,82.000 137.600 C 82.220 137.600,82.400 137.169,82.400 136.643 C 82.400 136.116,82.670 135.582,83.000 135.455 C 83.330 135.329,83.600 134.859,83.600 134.413 C 83.600 133.966,83.780 133.600,84.000 133.600 C 84.220 133.600,84.400 133.349,84.400 133.043 C 84.400 132.736,84.670 132.382,85.000 132.255 C 85.330 132.129,85.600 131.659,85.600 131.213 C 85.600 130.766,85.780 130.400,86.000 130.400 C 86.220 130.400,86.400 129.950,86.400 129.400 C 86.400 128.850,86.605 128.400,86.856 128.400 C 87.410 128.400,88.370 127.197,88.387 126.481 C 88.394 126.195,88.850 125.545,89.400 125.035 C 89.950 124.525,90.400 123.724,90.400 123.254 C 90.400 122.784,90.605 122.400,90.856 122.400 C 91.471 122.400,92.372 121.165,92.387 120.300 C 92.394 119.915,92.670 119.600,93.000 119.600 C 93.330 119.600,93.600 119.373,93.600 119.095 C 93.600 118.817,94.050 118.252,94.600 117.839 C 95.150 117.426,95.600 116.753,95.600 116.344 C 95.600 115.935,95.780 115.600,96.000 115.600 C 96.220 115.600,96.400 115.330,96.400 115.000 C 96.400 114.670,96.593 114.400,96.829 114.400 C 97.303 114.400,98.400 113.413,98.400 112.986 C 98.400 112.837,98.850 112.361,99.400 111.929 C 99.950 111.496,100.400 110.795,100.400 110.371 C 100.400 109.947,100.670 109.600,101.000 109.600 C 101.330 109.600,101.600 109.407,101.600 109.171 C 101.600 108.936,101.857 108.486,102.171 108.171 C 102.486 107.857,102.936 107.600,103.171 107.600 C 103.407 107.600,103.600 107.425,103.600 107.211 C 103.600 106.997,105.225 105.197,107.211 103.211 C 109.197 101.225,110.997 99.600,111.211 99.600 C 111.425 99.600,111.600 99.407,111.600 99.171 C 111.600 98.618,112.618 97.600,113.171 97.600 C 113.407 97.600,113.600 97.330,113.600 97.000 C 113.600 96.670,113.947 96.400,114.371 96.400 C 114.795 96.400,115.496 95.950,115.929 95.400 C 116.361 94.850,116.837 94.400,116.986 94.400 C 117.413 94.400,118.400 93.303,118.400 92.829 C 118.400 92.593,118.670 92.400,119.000 92.400 C 119.330 92.400,119.600 92.220,119.600 92.000 C 119.600 91.780,119.935 91.600,120.344 91.600 C 120.753 91.600,121.426 91.150,121.839 90.600 C 122.252 90.050,122.817 89.600,123.095 89.600 C 123.373 89.600,123.600 89.330,123.600 89.000 C 123.600 88.670,123.915 88.394,124.300 88.387 C 125.165 88.372,126.400 87.471,126.400 86.856 C 126.400 86.605,126.784 86.400,127.254 86.400 C 127.724 86.400,128.525 85.950,129.035 85.400 C 129.545 84.850,130.195 84.394,130.481 84.387 C 131.197 84.370,132.400 83.410,132.400 82.856 C 132.400 82.605,132.850 82.400,133.400 82.400 C 133.950 82.400,134.400 82.220,134.400 82.000 C 134.400 81.780,134.766 81.600,135.213 81.600 C 135.659 81.600,136.129 81.330,136.255 81.000 C 136.382 80.670,136.736 80.400,137.043 80.400 C 137.349 80.400,137.600 80.220,137.600 80.000 C 137.600 79.780,137.966 79.600,138.413 79.600 C 138.859 79.600,139.329 79.330,139.455 79.000 C 139.582 78.670,140.116 78.400,140.643 78.400 C 141.169 78.400,141.600 78.220,141.600 78.000 C 141.600 77.780,141.966 77.600,142.413 77.600 C 142.859 77.600,143.329 77.330,143.455 77.000 C 143.582 76.670,144.116 76.400,144.643 76.400 C 145.169 76.400,145.600 76.220,145.600 76.000 C 145.600 75.780,145.966 75.600,146.413 75.600 C 146.859 75.600,147.329 75.330,147.455 75.000 C 147.582 74.670,148.116 74.400,148.643 74.400 C 149.169 74.400,149.600 74.220,149.600 74.000 C 149.600 73.780,150.146 73.600,150.813 73.600 C 151.521 73.600,152.121 73.351,152.255 73.000 C 152.382 72.670,152.916 72.400,153.443 72.400 C 153.969 72.400,154.400 72.220,154.400 72.000 C 154.400 71.780,155.036 71.600,155.813 71.600 C 156.699 71.600,157.311 71.377,157.455 71.000 C 157.582 70.670,158.116 70.400,158.643 70.400 C 159.169 70.400,159.600 70.220,159.600 70.000 C 159.600 69.780,160.230 69.600,161.000 69.600 C 161.978 69.600,162.400 69.419,162.400 69.000 C 162.400 68.547,162.889 68.400,164.400 68.400 C 165.500 68.400,166.400 68.220,166.400 68.000 C 166.400 67.780,167.036 67.600,167.813 67.600 C 168.699 67.600,169.311 67.377,169.455 67.000 C 169.617 66.580,170.272 66.400,171.643 66.400 C 172.719 66.400,173.600 66.220,173.600 66.000 C 173.600 65.780,174.596 65.600,175.813 65.600 C 177.410 65.600,178.089 65.433,178.255 65.000 C 178.431 64.542,179.183 64.400,181.443 64.400 C 183.148 64.400,184.400 64.231,184.400 64.000 C 184.400 63.765,185.804 63.600,187.813 63.600 C 190.477 63.600,191.276 63.468,191.455 63.000 C 191.582 62.670,192.118 62.400,192.647 62.400 L 193.608 62.400 193.504 43.500 L 193.400 24.600 191.565 24.481 C 190.282 24.397,189.575 24.548,189.216 24.981 M222.667 25.867 C 222.150 26.383,222.358 62.598,222.880 63.120 C 223.144 63.384,223.853 63.600,224.456 63.600 C 225.059 63.600,225.664 63.780,225.800 64.000 C 225.936 64.220,227.212 64.400,228.636 64.400 C 230.568 64.400,231.284 64.552,231.455 65.000 C 231.617 65.420,232.272 65.600,233.643 65.600 C 234.719 65.600,235.600 65.780,235.600 66.000 C 235.600 66.220,236.481 66.400,237.557 66.400 C 238.928 66.400,239.583 66.580,239.745 67.000 C 239.889 67.377,240.501 67.600,241.387 67.600 C 242.164 67.600,242.800 67.780,242.800 68.000 C 242.800 68.220,243.385 68.406,244.100 68.413 C 244.815 68.420,245.749 68.690,246.176 69.013 C 246.604 69.336,247.358 69.600,247.853 69.600 C 248.348 69.600,248.864 69.780,249.000 70.000 C 249.136 70.220,249.872 70.400,250.636 70.400 C 251.502 70.400,252.112 70.626,252.255 71.000 C 252.382 71.330,252.906 71.600,253.419 71.600 C 253.933 71.600,254.464 71.780,254.600 72.000 C 254.736 72.220,255.382 72.400,256.036 72.400 C 256.724 72.400,257.322 72.653,257.455 73.000 C 257.582 73.330,258.116 73.600,258.643 73.600 C 259.169 73.600,259.600 73.780,259.600 74.000 C 259.600 74.220,260.031 74.400,260.557 74.400 C 261.084 74.400,261.618 74.670,261.745 75.000 C 261.871 75.330,262.341 75.600,262.787 75.600 C 263.234 75.600,263.600 75.780,263.600 76.000 C 263.600 76.220,264.131 76.400,264.780 76.400 C 265.429 76.400,266.104 76.639,266.280 76.930 C 266.622 77.498,267.702 78.028,269.000 78.268 C 269.440 78.349,270.000 78.682,270.244 79.007 C 270.488 79.333,270.893 79.600,271.144 79.600 C 271.395 79.600,271.600 79.780,271.600 80.000 C 271.600 80.220,271.951 80.400,272.379 80.400 C 272.808 80.400,273.644 80.850,274.238 81.400 C 274.831 81.950,275.636 82.400,276.025 82.400 C 276.415 82.400,276.793 82.535,276.867 82.700 C 277.060 83.135,280.753 85.600,281.212 85.600 C 281.425 85.600,281.600 85.780,281.600 86.000 C 281.600 86.220,281.848 86.400,282.151 86.400 C 282.454 86.400,282.912 86.653,283.169 86.963 C 283.426 87.273,284.259 87.821,285.018 88.182 C 285.778 88.543,286.400 89.009,286.400 89.219 C 286.400 89.428,286.592 89.600,286.827 89.600 C 287.061 89.600,287.916 90.228,288.727 90.997 C 289.537 91.765,290.403 92.395,290.652 92.397 C 291.101 92.400,293.320 94.310,296.000 97.001 C 296.770 97.773,297.529 98.404,297.687 98.403 C 298.052 98.399,308.799 109.152,308.802 109.523 C 308.803 109.675,309.852 110.925,311.134 112.299 C 312.415 113.673,313.681 115.203,313.947 115.699 C 314.213 116.195,314.964 117.209,315.616 117.954 C 316.267 118.699,316.800 119.439,316.800 119.598 C 316.800 119.758,317.430 120.556,318.200 121.373 C 318.970 122.189,319.600 123.204,319.600 123.628 C 319.600 124.053,319.768 124.400,319.973 124.400 C 320.178 124.400,320.450 124.728,320.578 125.129 C 320.705 125.531,321.122 126.216,321.505 126.651 C 322.453 127.731,323.177 128.861,323.458 129.700 C 323.588 130.085,323.852 130.400,324.047 130.400 C 324.241 130.400,324.400 130.670,324.400 131.000 C 324.400 131.330,324.567 131.600,324.771 131.600 C 324.975 131.600,325.412 132.143,325.743 132.807 C 326.075 133.470,326.163 133.901,325.940 133.763 C 325.717 133.625,325.960 134.207,326.480 135.056 C 327.413 136.580,331.305 144.460,332.083 146.400 C 332.728 148.007,333.660 150.144,334.044 150.895 C 334.240 151.277,334.400 151.917,334.400 152.318 C 334.400 152.719,334.664 153.396,334.987 153.824 C 335.310 154.251,335.580 155.084,335.587 155.676 C 335.594 156.268,335.780 156.864,336.000 157.000 C 336.220 157.136,336.400 157.652,336.400 158.147 C 336.400 158.642,336.664 159.396,336.987 159.824 C 337.310 160.251,337.580 161.084,337.587 161.676 C 337.594 162.268,337.780 162.864,338.000 163.000 C 338.220 163.136,338.400 163.832,338.400 164.547 C 338.400 165.262,338.664 166.196,338.987 166.624 C 339.310 167.051,339.580 168.154,339.587 169.076 C 339.594 169.998,339.780 170.864,340.000 171.000 C 340.220 171.136,340.400 172.102,340.400 173.147 C 340.400 174.198,340.662 175.394,340.987 175.824 C 341.349 176.302,341.579 177.529,341.587 179.020 C 341.594 180.351,341.767 181.611,341.972 181.820 C 342.176 182.029,342.434 183.820,342.545 185.800 C 342.831 190.896,342.813 190.761,343.225 191.016 C 343.443 191.150,343.600 195.844,343.600 202.247 C 343.600 208.297,343.450 213.155,343.267 213.041 C 342.859 212.790,342.832 212.950,342.545 217.200 C 342.419 219.070,342.178 220.780,342.010 221.000 C 341.842 221.220,341.676 222.514,341.641 223.876 C 341.606 225.238,341.313 226.858,340.991 227.476 C 340.669 228.094,340.404 229.264,340.402 230.076 C 340.401 230.888,340.254 231.643,340.076 231.753 C 339.898 231.863,339.707 232.816,339.653 233.871 C 339.598 234.926,339.294 236.075,338.977 236.426 C 338.660 236.776,338.400 237.623,338.400 238.308 C 338.400 238.993,338.259 239.640,338.087 239.746 C 337.915 239.852,337.731 240.510,337.678 241.207 C 337.625 241.905,337.316 242.741,336.991 243.066 C 336.666 243.391,336.400 244.084,336.400 244.605 C 336.400 245.126,336.259 245.640,336.087 245.746 C 335.915 245.852,335.730 246.531,335.675 247.254 C 335.620 247.977,335.431 248.666,335.256 248.784 C 334.627 249.210,333.600 251.746,333.600 252.874 C 333.600 253.528,333.341 254.124,333.000 254.255 C 332.670 254.382,332.403 254.691,332.406 254.943 C 332.410 255.194,331.932 256.390,331.345 257.600 C 330.757 258.810,330.141 260.160,329.975 260.600 C 329.333 262.299,329.167 262.643,328.328 264.000 C 327.853 264.770,326.756 266.750,325.892 268.400 C 325.027 270.050,324.203 271.490,324.060 271.600 C 323.668 271.902,322.885 273.225,322.107 274.900 C 321.725 275.725,321.294 276.400,321.152 276.400 C 321.009 276.400,320.583 276.872,320.205 277.449 C 319.751 278.141,319.701 278.387,320.059 278.172 C 320.755 277.753,319.634 279.250,318.900 279.720 C 318.625 279.896,318.400 280.235,318.400 280.474 C 318.400 280.713,317.995 281.317,317.500 281.816 C 316.059 283.271,315.600 283.928,315.600 284.537 C 315.600 284.851,315.150 285.403,314.600 285.763 C 314.050 286.124,313.600 286.684,313.600 287.009 C 313.600 287.334,313.414 287.600,313.187 287.600 C 312.960 287.600,312.645 287.915,312.487 288.300 C 312.174 289.063,311.751 289.518,302.423 299.100 C 298.943 302.675,295.924 305.600,295.714 305.600 C 295.503 305.600,294.705 306.275,293.940 307.100 C 293.175 307.925,292.028 308.960,291.391 309.400 C 290.753 309.840,289.282 310.965,288.122 311.900 C 286.961 312.835,285.830 313.600,285.609 313.600 C 285.388 313.600,284.980 313.968,284.703 314.418 C 284.427 314.868,283.435 315.619,282.500 316.089 C 281.565 316.558,280.800 317.090,280.800 317.271 C 280.800 317.452,280.530 317.600,280.200 317.600 C 279.870 317.600,279.600 317.780,279.600 318.000 C 279.600 318.220,279.349 318.400,279.043 318.400 C 278.736 318.400,278.382 318.670,278.255 319.000 C 278.129 319.330,277.721 319.600,277.350 319.600 C 276.979 319.600,276.119 320.015,275.438 320.523 C 274.757 321.031,273.533 321.756,272.717 322.134 C 271.901 322.512,271.126 322.997,270.993 323.211 C 270.861 323.425,270.447 323.600,270.072 323.600 C 269.698 323.600,268.907 324.050,268.313 324.600 C 267.720 325.150,266.867 325.600,266.417 325.600 C 265.968 325.600,265.600 325.760,265.600 325.957 C 265.600 326.153,265.150 326.426,264.600 326.564 C 264.050 326.702,263.600 326.992,263.600 327.208 C 263.600 327.423,263.178 327.600,262.661 327.600 C 261.652 327.600,259.364 328.612,258.984 329.225 C 258.857 329.431,258.313 329.600,257.776 329.600 C 257.239 329.600,256.800 329.780,256.800 330.000 C 256.800 330.220,256.384 330.400,255.876 330.400 C 255.369 330.400,254.604 330.664,254.176 330.987 C 253.749 331.310,252.995 331.580,252.500 331.587 C 252.005 331.594,251.600 331.780,251.600 332.000 C 251.600 332.220,251.172 332.400,250.649 332.400 C 250.126 332.400,249.474 332.670,249.200 333.000 C 248.926 333.330,248.499 333.603,248.251 333.607 C 248.003 333.611,247.415 334.021,246.943 334.518 C 246.141 335.365,244.558 335.939,239.200 337.324 C 234.391 338.568,226.909 339.999,225.200 340.002 C 224.430 340.003,223.170 340.172,222.400 340.376 C 215.675 342.162,192.817 341.587,180.939 339.333 C 178.844 338.936,176.948 338.815,175.639 338.995 L 173.600 339.275 173.600 357.250 C 173.600 374.020,173.647 375.240,174.300 375.442 C 174.685 375.561,175.313 375.825,175.695 376.029 C 176.077 376.233,177.720 376.400,179.346 376.400 C 181.486 376.400,182.440 376.566,182.800 377.000 C 183.197 377.478,184.378 377.600,188.625 377.600 C 191.746 377.600,194.055 377.766,194.200 378.000 C 194.535 378.542,213.065 378.542,213.400 378.000 C 213.548 377.761,216.142 377.600,219.836 377.600 C 224.968 377.600,226.064 377.498,226.255 377.000 C 226.439 376.523,227.294 376.400,230.443 376.400 C 232.814 376.400,234.400 376.240,234.400 376.000 C 234.400 375.771,235.604 375.600,237.213 375.600 C 239.344 375.600,240.081 375.455,240.255 375.000 C 240.417 374.580,241.072 374.400,242.443 374.400 C 243.519 374.400,244.400 374.220,244.400 374.000 C 244.400 373.778,245.471 373.600,246.813 373.600 C 248.588 373.600,249.286 373.442,249.455 373.000 C 249.597 372.630,250.205 372.400,251.043 372.400 C 251.789 372.400,252.400 372.220,252.400 372.000 C 252.400 371.780,253.216 371.600,254.213 371.600 C 255.455 371.600,256.098 371.411,256.255 371.000 C 256.396 370.633,257.003 370.400,257.819 370.400 C 258.553 370.400,259.264 370.220,259.400 370.000 C 259.536 369.780,260.182 369.600,260.836 369.600 C 261.524 369.600,262.122 369.347,262.255 369.000 C 262.393 368.640,262.996 368.400,263.763 368.400 C 264.465 368.400,265.219 368.221,265.438 368.002 C 265.656 367.784,266.344 367.563,266.965 367.511 C 267.587 367.460,268.183 367.189,268.290 366.909 C 268.398 366.629,268.916 366.400,269.443 366.400 C 269.969 366.400,270.400 366.220,270.400 366.000 C 270.400 365.780,271.036 365.600,271.813 365.600 C 272.699 365.600,273.311 365.377,273.455 365.000 C 273.582 364.670,274.116 364.400,274.643 364.400 C 275.169 364.400,275.600 364.220,275.600 364.000 C 275.600 363.780,275.966 363.600,276.413 363.600 C 276.859 363.600,277.329 363.330,277.455 363.000 C 277.597 362.630,278.205 362.400,279.043 362.400 C 279.789 362.400,280.400 362.220,280.400 362.000 C 280.400 361.780,280.766 361.600,281.213 361.600 C 281.659 361.600,282.129 361.330,282.255 361.000 C 282.382 360.670,282.916 360.400,283.443 360.400 C 283.969 360.400,284.400 360.220,284.400 360.000 C 284.400 359.780,284.766 359.600,285.213 359.600 C 285.659 359.600,286.129 359.330,286.255 359.000 C 286.382 358.670,286.916 358.400,287.443 358.400 C 287.969 358.400,288.400 358.220,288.400 358.000 C 288.400 357.780,288.766 357.600,289.213 357.600 C 289.659 357.600,290.129 357.330,290.255 357.000 C 290.382 356.670,290.736 356.400,291.043 356.400 C 291.349 356.400,291.600 356.220,291.600 356.000 C 291.600 355.780,291.966 355.600,292.413 355.600 C 292.859 355.600,293.329 355.330,293.455 355.000 C 293.582 354.670,294.116 354.400,294.643 354.400 C 295.169 354.400,295.600 354.220,295.600 354.000 C 295.600 353.780,295.935 353.600,296.344 353.600 C 296.753 353.600,297.426 353.150,297.839 352.600 C 298.252 352.050,298.913 351.600,299.307 351.600 C 299.702 351.600,300.129 351.330,300.255 351.000 C 300.382 350.670,300.736 350.400,301.043 350.400 C 301.349 350.400,301.600 350.220,301.600 350.000 C 301.600 349.780,301.935 349.600,302.344 349.600 C 302.753 349.600,303.426 349.150,303.839 348.600 C 304.253 348.049,304.996 347.600,305.495 347.600 C 306.033 347.600,306.400 347.357,306.400 347.000 C 306.400 346.670,306.670 346.400,307.000 346.400 C 307.330 346.400,307.600 346.220,307.600 346.000 C 307.600 345.780,307.935 345.600,308.344 345.600 C 308.753 345.600,309.426 345.150,309.839 344.600 C 310.252 344.050,310.817 343.600,311.095 343.600 C 311.373 343.600,311.600 343.330,311.600 343.000 C 311.600 342.670,311.915 342.394,312.300 342.387 C 313.165 342.372,314.400 341.471,314.400 340.856 C 314.400 340.605,314.670 340.400,315.000 340.400 C 315.330 340.400,315.600 340.220,315.600 340.000 C 315.600 339.780,315.897 339.600,316.260 339.600 C 316.623 339.600,317.783 338.700,318.837 337.600 C 319.892 336.500,320.945 335.600,321.177 335.600 C 321.410 335.600,321.600 335.407,321.600 335.171 C 321.600 334.574,322.635 333.600,323.271 333.599 C 323.562 333.599,324.477 332.879,325.305 331.999 C 326.133 331.120,326.910 330.400,327.033 330.400 C 327.422 330.400,328.400 329.275,328.400 328.829 C 328.400 328.593,328.593 328.400,328.829 328.400 C 329.382 328.400,330.400 327.382,330.400 326.829 C 330.400 326.593,330.593 326.400,330.829 326.400 C 331.382 326.400,332.400 325.382,332.400 324.829 C 332.400 324.593,332.670 324.400,333.000 324.400 C 333.330 324.400,333.600 324.243,333.600 324.051 C 333.600 323.859,334.495 322.824,335.590 321.751 C 336.684 320.678,337.584 319.562,337.590 319.271 C 337.602 318.632,338.578 317.600,339.171 317.600 C 339.407 317.600,339.600 317.410,339.600 317.177 C 339.600 316.945,340.500 315.892,341.600 314.837 C 342.700 313.783,343.600 312.623,343.600 312.260 C 343.600 311.897,343.780 311.600,344.000 311.600 C 344.220 311.600,344.400 311.330,344.400 311.000 C 344.400 310.670,344.605 310.400,344.856 310.400 C 345.471 310.400,346.372 309.165,346.387 308.300 C 346.394 307.915,346.670 307.600,347.000 307.600 C 347.330 307.600,347.600 307.373,347.600 307.095 C 347.600 306.817,348.050 306.252,348.600 305.839 C 349.150 305.426,349.600 304.753,349.600 304.344 C 349.600 303.935,349.780 303.600,350.000 303.600 C 350.220 303.600,350.400 303.349,350.400 303.043 C 350.400 302.736,350.670 302.382,351.000 302.255 C 351.330 302.129,351.600 301.702,351.600 301.307 C 351.600 300.913,352.050 300.252,352.600 299.839 C 353.150 299.426,353.600 298.753,353.600 298.344 C 353.600 297.935,353.780 297.600,354.000 297.600 C 354.220 297.600,354.400 297.349,354.400 297.043 C 354.400 296.736,354.670 296.382,355.000 296.255 C 355.330 296.129,355.600 295.659,355.600 295.213 C 355.600 294.766,355.780 294.400,356.000 294.400 C 356.220 294.400,356.400 293.950,356.400 293.400 C 356.400 292.850,356.605 292.400,356.856 292.400 C 357.457 292.400,358.371 291.172,358.387 290.343 C 358.394 289.981,358.670 289.582,359.000 289.455 C 359.330 289.329,359.600 288.859,359.600 288.413 C 359.600 287.966,359.780 287.600,360.000 287.600 C 360.220 287.600,360.400 287.150,360.400 286.600 C 360.400 285.978,360.627 285.600,361.000 285.600 C 361.330 285.600,361.600 285.330,361.600 285.000 C 361.600 284.670,361.780 284.400,362.000 284.400 C 362.220 284.400,362.400 283.969,362.400 283.443 C 362.400 282.916,362.670 282.382,363.000 282.255 C 363.330 282.129,363.600 281.659,363.600 281.213 C 363.600 280.766,363.780 280.400,364.000 280.400 C 364.220 280.400,364.400 279.969,364.400 279.443 C 364.400 278.916,364.670 278.382,365.000 278.255 C 365.351 278.121,365.600 277.521,365.600 276.813 C 365.600 276.146,365.780 275.600,366.000 275.600 C 366.220 275.600,366.400 275.169,366.400 274.643 C 366.400 274.116,366.670 273.582,367.000 273.455 C 367.330 273.329,367.600 272.859,367.600 272.413 C 367.600 271.966,367.780 271.600,368.000 271.600 C 368.220 271.600,368.400 271.169,368.400 270.643 C 368.400 270.116,368.670 269.582,369.000 269.455 C 369.377 269.311,369.600 268.699,369.600 267.813 C 369.600 267.036,369.780 266.400,370.000 266.400 C 370.220 266.400,370.400 265.770,370.400 265.000 C 370.400 264.022,370.581 263.600,371.000 263.600 C 371.369 263.600,371.600 263.225,371.600 262.624 C 371.600 262.087,371.780 261.536,372.000 261.400 C 372.220 261.264,372.400 260.533,372.400 259.776 C 372.400 258.820,372.583 258.400,373.000 258.400 C 373.417 258.400,373.600 257.980,373.600 257.024 C 373.600 256.267,373.780 255.536,374.000 255.400 C 374.220 255.264,374.400 254.553,374.400 253.819 C 374.400 253.086,374.634 252.396,374.919 252.286 C 375.211 252.175,375.483 251.322,375.539 250.344 C 375.595 249.385,375.811 248.540,376.020 248.467 C 376.229 248.393,376.400 247.448,376.400 246.367 C 376.400 244.885,376.548 244.400,377.000 244.400 C 377.453 244.400,377.600 243.911,377.600 242.400 C 377.600 241.300,377.780 240.400,378.000 240.400 C 378.221 240.400,378.400 239.348,378.400 238.043 C 378.400 236.316,378.561 235.624,379.000 235.455 C 379.442 235.286,379.600 234.588,379.600 232.813 C 379.600 231.471,379.778 230.400,380.000 230.400 C 380.240 230.400,380.400 228.800,380.400 226.400 C 380.400 223.111,380.507 222.400,381.000 222.400 C 381.504 222.400,381.600 221.533,381.600 217.000 C 381.600 213.667,381.753 211.600,382.000 211.600 C 382.256 211.600,382.400 207.875,382.400 201.224 C 382.400 194.737,382.250 190.755,382.000 190.600 C 381.767 190.456,381.600 188.192,381.600 185.164 C 381.600 180.920,381.491 179.933,381.000 179.745 C 380.533 179.565,380.400 178.775,380.400 176.181 C 380.400 174.347,380.220 172.736,380.000 172.600 C 379.780 172.464,379.600 171.098,379.600 169.564 C 379.600 167.454,379.454 166.719,379.000 166.545 C 378.580 166.383,378.400 165.728,378.400 164.357 C 378.400 163.281,378.220 162.400,378.000 162.400 C 377.780 162.400,377.600 161.584,377.600 160.587 C 377.600 159.345,377.411 158.702,377.000 158.545 C 376.580 158.383,376.400 157.728,376.400 156.357 C 376.400 155.281,376.220 154.400,376.000 154.400 C 375.780 154.400,375.600 153.584,375.600 152.587 C 375.600 151.345,375.411 150.702,375.000 150.545 C 374.630 150.403,374.400 149.795,374.400 148.957 C 374.400 148.211,374.220 147.600,374.000 147.600 C 373.780 147.600,373.600 146.964,373.600 146.187 C 373.600 145.301,373.377 144.689,373.000 144.545 C 372.630 144.403,372.400 143.795,372.400 142.957 C 372.400 142.211,372.220 141.600,372.000 141.600 C 371.780 141.600,371.600 140.964,371.600 140.187 C 371.600 139.301,371.377 138.689,371.000 138.545 C 370.670 138.418,370.400 137.884,370.400 137.357 C 370.400 136.831,370.220 136.400,370.000 136.400 C 369.780 136.400,369.600 135.770,369.600 135.000 C 369.600 134.022,369.419 133.600,369.000 133.600 C 368.627 133.600,368.400 133.222,368.400 132.600 C 368.400 132.050,368.220 131.600,368.000 131.600 C 367.780 131.600,367.600 131.150,367.600 130.600 C 367.600 129.978,367.373 129.600,367.000 129.600 C 366.567 129.600,366.400 129.156,366.400 128.000 C 366.400 127.120,366.220 126.400,366.000 126.400 C 365.780 126.400,365.600 126.034,365.600 125.587 C 365.600 125.141,365.330 124.671,365.000 124.545 C 364.670 124.418,364.400 123.884,364.400 123.357 C 364.400 122.831,364.220 122.400,364.000 122.400 C 363.780 122.400,363.600 122.034,363.600 121.587 C 363.600 121.141,363.330 120.671,363.000 120.545 C 362.670 120.418,362.400 119.884,362.400 119.357 C 362.400 118.831,362.220 118.400,362.000 118.400 C 361.780 118.400,361.600 118.034,361.600 117.587 C 361.600 117.141,361.330 116.671,361.000 116.545 C 360.670 116.418,360.400 115.961,360.400 115.529 C 360.400 114.679,359.521 113.600,358.829 113.600 C 358.593 113.600,358.400 113.150,358.400 112.600 C 358.400 112.050,358.220 111.600,358.000 111.600 C 357.780 111.600,357.600 111.150,357.600 110.600 C 357.600 109.978,357.373 109.600,357.000 109.600 C 356.670 109.600,356.400 109.330,356.400 109.000 C 356.400 108.670,356.220 108.400,356.000 108.400 C 355.780 108.400,355.600 107.950,355.600 107.400 C 355.600 106.778,355.373 106.400,355.000 106.400 C 354.670 106.400,354.394 106.085,354.387 105.700 C 354.372 104.835,353.471 103.600,352.856 103.600 C 352.605 103.600,352.400 103.150,352.400 102.600 C 352.400 102.050,352.220 101.600,352.000 101.600 C 351.780 101.600,351.600 101.330,351.600 101.000 C 351.600 100.670,351.407 100.400,351.171 100.400 C 350.466 100.400,349.600 99.314,349.600 98.429 C 349.600 97.959,349.340 97.600,349.000 97.600 C 348.670 97.600,348.400 97.330,348.400 97.000 C 348.400 96.670,348.220 96.400,348.000 96.400 C 347.780 96.400,347.600 96.065,347.600 95.656 C 347.600 95.247,347.150 94.574,346.600 94.161 C 346.050 93.748,345.600 93.183,345.600 92.905 C 345.600 92.627,345.407 92.400,345.171 92.400 C 344.466 92.400,343.600 91.314,343.600 90.429 C 343.600 89.959,343.340 89.600,343.000 89.600 C 342.670 89.600,342.400 89.407,342.400 89.171 C 342.400 88.618,341.382 87.600,340.829 87.600 C 340.593 87.600,340.400 87.407,340.400 87.171 C 340.400 86.618,339.382 85.600,338.829 85.600 C 338.593 85.600,338.400 85.330,338.400 85.000 C 338.400 84.670,338.220 84.400,338.000 84.400 C 337.780 84.400,337.600 84.118,337.600 83.773 C 337.600 82.811,324.196 69.600,323.220 69.600 C 322.769 69.600,322.400 69.407,322.400 69.171 C 322.400 68.618,321.382 67.600,320.829 67.600 C 320.593 67.600,320.400 67.407,320.400 67.171 C 320.400 66.618,319.382 65.600,318.829 65.600 C 318.593 65.600,318.400 65.395,318.400 65.144 C 318.400 64.529,317.165 63.628,316.300 63.613 C 315.915 63.606,315.600 63.330,315.600 63.000 C 315.600 62.670,315.373 62.400,315.095 62.400 C 314.817 62.400,314.252 61.950,313.839 61.400 C 313.426 60.850,312.753 60.400,312.344 60.400 C 311.935 60.400,311.600 60.220,311.600 60.000 C 311.600 59.780,311.330 59.600,311.000 59.600 C 310.670 59.600,310.400 59.407,310.400 59.171 C 310.400 58.466,309.314 57.600,308.429 57.600 C 307.959 57.600,307.600 57.340,307.600 57.000 C 307.600 56.670,307.330 56.400,307.000 56.400 C 306.670 56.400,306.400 56.220,306.400 56.000 C 306.400 55.780,305.950 55.600,305.400 55.600 C 304.850 55.600,304.400 55.407,304.400 55.171 C 304.400 54.466,303.314 53.600,302.429 53.600 C 301.959 53.600,301.600 53.340,301.600 53.000 C 301.600 52.670,301.330 52.400,301.000 52.400 C 300.670 52.400,300.400 52.220,300.400 52.000 C 300.400 51.780,299.950 51.600,299.400 51.600 C 298.850 51.600,298.400 51.407,298.400 51.171 C 298.400 50.466,297.314 49.600,296.429 49.600 C 295.959 49.600,295.600 49.340,295.600 49.000 C 295.600 48.627,295.222 48.400,294.600 48.400 C 294.050 48.400,293.600 48.220,293.600 48.000 C 293.600 47.780,293.330 47.600,293.000 47.600 C 292.670 47.600,292.400 47.330,292.400 47.000 C 292.400 46.627,292.022 46.400,291.400 46.400 C 290.850 46.400,290.400 46.220,290.400 46.000 C 290.400 45.780,289.950 45.600,289.400 45.600 C 288.778 45.600,288.400 45.373,288.400 45.000 C 288.400 44.627,288.022 44.400,287.400 44.400 C 286.850 44.400,286.400 44.220,286.400 44.000 C 286.400 43.780,285.950 43.600,285.400 43.600 C 284.778 43.600,284.400 43.373,284.400 43.000 C 284.400 42.627,284.022 42.400,283.400 42.400 C 282.850 42.400,282.400 42.220,282.400 42.000 C 282.400 41.780,281.950 41.600,281.400 41.600 C 280.778 41.600,280.400 41.373,280.400 41.000 C 280.400 40.627,280.022 40.400,279.400 40.400 C 278.850 40.400,278.400 40.220,278.400 40.000 C 278.400 39.780,277.950 39.600,277.400 39.600 C 276.778 39.600,276.400 39.373,276.400 39.000 C 276.400 38.581,275.978 38.400,275.000 38.400 C 274.230 38.400,273.600 38.220,273.600 38.000 C 273.600 37.780,273.150 37.600,272.600 37.600 C 271.978 37.600,271.600 37.373,271.600 37.000 C 271.600 36.631,271.225 36.400,270.624 36.400 C 270.087 36.400,269.536 36.220,269.400 36.000 C 269.264 35.780,268.533 35.600,267.776 35.600 C 266.820 35.600,266.400 35.417,266.400 35.000 C 266.400 34.581,265.978 34.400,265.000 34.400 C 264.230 34.400,263.600 34.220,263.600 34.000 C 263.600 33.780,262.880 33.600,262.000 33.600 C 260.844 33.600,260.400 33.433,260.400 33.000 C 260.400 32.581,259.978 32.400,259.000 32.400 C 258.230 32.400,257.600 32.220,257.600 32.000 C 257.600 31.780,256.880 31.600,256.000 31.600 C 254.844 31.600,254.400 31.433,254.400 31.000 C 254.400 30.547,253.911 30.400,252.400 30.400 C 251.300 30.400,250.400 30.220,250.400 30.000 C 250.400 29.780,249.500 29.600,248.400 29.600 C 246.889 29.600,246.400 29.453,246.400 29.000 C 246.400 28.547,245.911 28.400,244.400 28.400 C 243.300 28.400,242.400 28.220,242.400 28.000 C 242.400 27.769,241.133 27.600,239.400 27.600 C 237.000 27.600,236.400 27.480,236.400 27.000 C 236.400 26.520,235.800 26.400,233.400 26.400 C 231.667 26.400,230.400 26.231,230.400 26.000 C 230.400 25.555,223.104 25.429,222.667 25.867 M139.200 127.800 C 137.992 129.086,138.342 129.087,139.838 127.800 C 140.477 127.251,140.806 126.801,140.570 126.800 C 140.333 126.800,139.717 127.250,139.200 127.800 M130.038 136.961 C 129.221 137.804,128.893 138.411,129.165 138.579 C 129.404 138.726,129.600 138.648,129.600 138.405 C 129.600 138.161,130.078 137.519,130.663 136.977 C 131.247 136.435,131.640 135.907,131.535 135.802 C 131.431 135.698,130.757 136.219,130.038 136.961 M189.337 175.400 C 189.339 177.160,189.409 177.830,189.493 176.889 C 189.578 175.949,189.577 174.509,189.491 173.689 C 189.405 172.870,189.336 173.640,189.337 175.400 M222.566 182.400 C 222.566 186.470,222.625 188.135,222.698 186.100 C 222.771 184.065,222.771 180.735,222.698 178.700 C 222.625 176.665,222.566 178.330,222.566 182.400 M222.570 254.200 C 222.571 259.040,222.629 260.965,222.699 258.478 C 222.769 255.991,222.769 252.031,222.698 249.678 C 222.628 247.325,222.570 249.360,222.570 254.200 M128.399 263.398 C 128.914 263.948,129.425 264.309,129.532 264.201 C 129.798 263.935,128.379 262.400,127.868 262.400 C 127.644 262.400,127.883 262.849,128.399 263.398 " stroke="none" fill="#bb7434" fill-rule="evenodd"></path></g></svg>